<svg width="24" height="24" fill="none" xmlns="http://www.w3.org/2000/svg"><path fill-rule="evenodd" clip-rule="evenodd" d="M13 0v4.062a7.96 7.96 0 0 1 3.906 1.618l2.872-2.872 1.415 1.414-2.873 2.872A7.96 7.96 0 0 1 19.938 11H24v2h-4.062a7.96 7.96 0 0 1-1.618 3.906l2.872 2.872-1.414 1.415-2.872-2.873A7.96 7.96 0 0 1 13 19.938V24h-2v-4.062a7.96 7.96 0 0 1-3.906-1.618l-2.872 2.872-1.414-1.414 2.872-2.872A7.96 7.96 0 0 1 4.062 13H0v-2h4.062A7.96 7.96 0 0 1 5.68 7.094L2.808 4.222l1.414-1.414L7.094 5.68A7.96 7.96 0 0 1 11 4.062V0h2Zm-1 6a6 6 0 1 0 0 12 6 6 0 0 0 0-12Z" fill="#FF5C00"/></svg>