<svg width="240" height="240" viewBox="0 0 240 240" fill="none" xmlns="http://www.w3.org/2000/svg">
<g clip-path="url(#clip0_99_1051)">
<path d="M124.934 109.284C124.68 109.518 124.428 109.752 124.175 109.985C123.129 110.952 122.092 111.909 121.025 112.803C119.84 113.795 118.656 114.789 117.472 115.783C111.879 120.476 106.279 125.175 100.612 129.79C94.0148 135.164 87.3395 140.44 80.6321 145.668L80.0173 144.879L80.632 145.668C77.4861 148.12 74.2664 150.48 71.0602 152.829C70.0945 153.537 69.13 154.244 68.1691 154.952L68.1681 154.953C67.7937 155.228 67.4867 155.462 67.2447 155.689C67.0005 155.918 66.8813 156.087 66.829 156.209C66.7899 156.3 66.7783 156.382 66.8179 156.512C66.8668 156.672 67.0077 156.94 67.3767 157.329L67.3777 157.33C67.3907 157.344 67.4043 157.358 67.4185 157.373C67.5162 157.476 67.6406 157.607 67.7556 157.745C67.7559 157.745 67.7563 157.746 67.7566 157.746L66.9884 158.386C67.4049 158.883 67.9121 159.522 68.46 160.212C69.3009 161.272 70.2378 162.452 71.0902 163.425L124.934 109.284ZM124.934 109.284C125.167 109.531 125.396 109.772 125.622 110.009C126.547 110.982 127.414 111.894 128.23 112.879M124.934 109.284L128.23 112.879M128.23 112.879C134.283 120.201 140.316 127.536 146.304 134.907L146.304 134.907C147.186 135.993 147.315 136.421 147.294 136.662C147.285 136.768 147.237 136.934 147.035 137.208C146.826 137.491 146.495 137.834 145.99 138.284L145.99 138.284C144.063 140.005 142.145 141.733 140.228 143.46C134.304 148.797 128.397 154.12 122.273 159.187C116.632 163.855 110.782 168.257 104.913 172.676C102.81 174.258 100.705 175.842 98.6065 177.442C97.1799 178.528 95.7557 179.537 94.3152 180.556C93.2149 181.335 92.1051 182.12 90.9776 182.953L90.9775 182.953C90.5042 183.303 90.2906 183.356 90.201 183.356H90.1998C90.1732 183.356 90.0004 183.358 89.6277 182.932L128.23 112.879Z" stroke="white" stroke-width="2"/>
<path d="M101.114 184.181C103.307 182.608 105.504 181.031 107.669 179.445C108.998 178.473 110.344 177.507 111.694 176.539C115.351 173.915 119.041 171.268 122.524 168.391C128.366 163.564 134.074 158.567 139.768 153.58C141.549 152.021 143.328 150.463 145.11 148.911C146.733 147.499 148.302 146.019 149.852 144.555C150.218 144.21 150.583 143.865 150.947 143.523L150.947 143.523C151.492 143.011 151.846 142.684 152.122 142.479C152.213 142.412 152.277 142.372 152.319 142.349C152.355 142.375 152.406 142.417 152.475 142.484C152.712 142.712 153.011 143.075 153.472 143.651C154.005 144.316 154.538 144.981 155.071 145.646C158.315 149.692 161.556 153.735 164.752 157.813L164.752 157.814C165.647 158.954 166.505 160.122 167.374 161.306C167.571 161.574 167.769 161.844 167.968 162.114C169.038 163.566 170.134 165.027 171.315 166.428L171.316 166.428C171.877 167.093 171.941 167.464 171.922 167.657C171.902 167.862 171.758 168.184 171.181 168.682C170.632 169.155 170.083 169.629 169.534 170.102C166.431 172.778 163.334 175.448 160.2 178.076L160.2 178.076C159.353 178.786 158.512 179.498 157.673 180.209C154.682 182.743 151.718 185.253 148.602 187.57C141.658 192.73 134.582 197.717 127.482 202.688C124.991 204.432 122.444 206.073 119.786 207.785C118.751 208.451 117.7 209.128 116.628 209.826C115.61 208.846 114.603 207.878 113.604 206.918C110.881 204.3 108.221 201.744 105.585 199.161L105.585 199.161C104.301 197.903 103.019 196.61 101.732 195.311C99.7512 193.314 97.7565 191.302 95.717 189.381L95.7163 189.38C95.4325 189.113 95.2893 188.918 95.2219 188.788C95.19 188.727 95.1791 188.688 95.1753 188.67C95.172 188.653 95.1729 188.647 95.1731 188.645L95.1732 188.645C95.1734 188.643 95.1752 188.631 95.1877 188.605C95.201 188.577 95.2265 188.534 95.2741 188.476C95.3737 188.354 95.5396 188.2 95.7998 188.012L95.8005 188.011C97.5558 186.734 99.3334 185.459 101.114 184.181Z" stroke="white" stroke-width="2"/>
<path d="M199.356 75.6578C198.293 79.3585 196.527 82.7719 194.817 86.0787C194.46 86.7703 194.104 87.4573 193.758 88.1412L193.758 88.1414C191.696 92.216 189.553 96.2993 187.058 100.183L187.058 100.184C182.845 106.734 178.076 112.932 173.348 119.075C172.868 119.699 172.388 120.322 171.909 120.946C171.909 120.946 171.909 120.946 171.909 120.946L171.116 120.337C169.341 122.648 167.445 124.861 165.512 127.04L199.356 75.6578ZM199.356 75.6578C199.364 75.6653 199.372 75.6731 199.381 75.6811C199.482 75.7788 199.572 75.8781 199.673 75.9901C199.702 76.0222 199.732 76.0554 199.764 76.0899L199.765 76.0913C200.373 76.7531 200.979 77.4178 201.585 78.0855L202.326 77.414M199.356 75.6578L200.502 75.415C201.112 76.0789 201.719 76.7452 202.326 77.414M202.326 77.414C203.194 78.3725 204.059 79.3334 204.923 80.2941C205.265 80.6743 205.607 81.0544 205.949 81.4344M202.326 77.414L201.586 78.0862C201.585 78.086 201.585 78.0858 201.585 78.0855M205.949 81.4344L201.585 78.0855M205.949 81.4344L205.206 82.1036M205.949 81.4344L205.206 82.1036C205.206 82.1036 205.206 82.1036 205.206 82.1036M201.585 78.0855C202.452 79.0424 203.314 80.0012 204.178 80.9613C204.521 81.3418 204.863 81.7226 205.206 82.1036M201.585 78.0855L161.683 133.098C161.682 133.097 161.682 133.096 161.682 133.096C161.706 133.206 161.789 133.345 162.041 133.667L162.042 133.669C165.444 138.027 168.839 142.375 172.233 146.723C175.367 150.738 178.502 154.753 181.642 158.776M205.206 82.1036C207.618 84.7818 210.053 87.4644 212.578 90.0658L212.578 90.0662C214.116 91.6492 215.688 93.2037 217.312 94.7084C219.024 96.2943 219.643 97.6492 219.74 98.9398C219.842 100.287 219.394 101.737 218.595 103.559C214.867 112.062 210.999 120.418 205.95 128.135M205.95 128.135C202.327 133.671 198.315 138.948 194.119 144.087L194.893 144.719M205.95 128.135C205.95 128.135 205.95 128.135 205.95 128.135L206.787 128.682M205.95 128.135L206.787 128.682M194.893 144.719L194.119 144.087C190.058 149.06 185.878 153.946 181.642 158.776M194.893 144.719C190.783 149.753 186.552 154.696 182.268 159.579M194.893 144.719C199.104 139.563 203.139 134.257 206.787 128.682M181.642 158.776C181.418 159.031 181.194 159.286 180.97 159.541L182.268 159.579M181.642 158.776C181.851 159.044 182.06 159.311 182.268 159.579M182.268 159.579L219.511 103.961C215.781 112.468 211.885 120.89 206.787 128.682" stroke="white" stroke-width="2"/>
<path d="M169.912 49.7796L169.913 49.7798C169.909 49.7885 169.905 49.797 169.9 49.8052C169.904 49.7966 169.908 49.7881 169.912 49.7796ZM168.694 52.4801C169.029 51.7369 169.369 50.9812 169.717 50.2094C170.389 50.7608 171.055 51.305 171.715 51.845C173.857 53.5948 175.944 55.3008 177.989 57.0641L177.99 57.0642C181.338 59.95 184.644 62.8862 187.956 65.8275C188.802 66.5793 189.649 67.3314 190.497 68.0832C191.561 69.0266 192.306 69.6979 192.819 70.2712C193.324 70.8353 193.519 71.2136 193.585 71.5465C193.651 71.881 193.616 72.3145 193.362 73.0476C193.105 73.7902 192.667 74.7222 192.033 76.034C191.251 77.6476 190.499 79.2646 189.751 80.8735C187.685 85.3167 185.648 89.6985 183.094 93.7786C179.12 100.124 174.529 106.099 169.921 112.097C169.59 112.528 169.258 112.96 168.927 113.391L168.927 113.392C166.775 116.197 164.444 118.831 162.087 121.496C160.962 122.768 159.831 124.047 158.71 125.354L158.71 125.354C158.075 126.096 157.622 126.581 157.26 126.878C156.901 127.172 156.767 127.165 156.755 127.164L156.754 127.164C156.727 127.163 156.57 127.144 156.188 126.8C155.814 126.463 155.356 125.937 154.721 125.162C151.878 121.692 148.978 118.26 146.083 114.834C144.453 112.905 142.825 110.978 141.21 109.048L141.21 109.048C140.31 107.973 139.406 106.865 138.498 105.752C137.299 104.284 136.093 102.805 134.877 101.379L134.876 101.379C134.477 100.911 134.452 100.693 134.456 100.604C134.462 100.494 134.531 100.249 134.975 99.7589L134.976 99.7583C136.104 98.5133 137.238 97.2699 138.374 96.025C142.694 91.2904 147.035 86.5326 151.117 81.568C156.745 74.7242 161.762 67.3788 165.588 59.2763L165.588 59.2761C166.631 57.0676 167.634 54.8375 168.694 52.4801Z" stroke="white" stroke-width="2"/>
<path d="M224.879 104.054C224.828 104.113 224.77 104.189 224.705 104.286C224.535 104.543 224.363 104.882 224.194 105.267C224.027 105.648 223.874 106.045 223.735 106.413C223.721 106.449 223.708 106.485 223.694 106.521C223.576 106.834 223.457 107.15 223.354 107.374L224.879 104.054ZM224.879 104.054C229.149 109.128 232.263 115.119 234.864 121.328M224.879 104.054L234.864 121.328M234.864 121.328C235.591 123.062 235.853 124.574 235.775 126.066C235.697 127.571 235.271 129.113 234.541 130.907C229.705 142.791 223.249 154.009 215.439 164.178C210.384 170.759 204.697 176.777 198.738 182.592C198.387 182.932 198.233 183.047 198.1 183.082C198.02 183.103 197.888 183.103 197.665 182.983C197.436 182.86 197.188 182.649 196.951 182.388L196.951 182.388C195.995 181.339 195.285 180.087 194.513 178.727C194.454 178.623 194.395 178.519 194.335 178.414C192.122 174.522 189.701 170.748 187.085 167.116M234.864 121.328L223.354 107.374C222.442 109.355 221.568 111.355 220.693 113.364C220.627 113.517 220.561 113.669 220.494 113.821C218.813 117.682 217.116 121.582 215.152 125.359M187.085 167.116C187.085 167.116 187.085 167.117 187.085 167.117L186.274 167.701L187.085 167.116ZM187.085 167.116C186.361 166.109 185.85 165.34 185.821 164.522M185.821 164.522C185.794 163.773 186.21 162.965 186.892 162.179M185.821 164.522C185.821 164.523 185.821 164.523 185.821 164.523L184.821 164.558L185.821 164.522C185.821 164.522 185.821 164.522 185.821 164.522ZM186.892 162.179C188.513 160.317 190.201 158.507 191.903 156.683L191.921 156.664C193.626 154.837 195.345 152.994 196.999 151.09M186.892 162.179C186.892 162.18 186.892 162.18 186.892 162.18L186.137 161.524L186.892 162.179ZM196.999 151.09C200.391 147.186 203.662 143.164 206.698 138.953M196.999 151.09L196.244 150.434L196.999 151.09ZM206.698 138.953C209.817 134.63 212.684 130.109 215.152 125.359M206.698 138.953L205.887 138.368L206.699 138.953C206.699 138.953 206.699 138.953 206.698 138.953ZM215.152 125.359C215.152 125.359 215.152 125.359 215.152 125.359L214.264 124.898L215.152 125.359Z" stroke="white" stroke-width="2"/>
<path d="M49.543 214.413C49.6464 214.493 49.7486 214.589 49.8528 214.686C50.052 214.871 50.2587 215.064 50.495 215.176L50.4865 214.863C50.4775 214.534 50.6216 214.298 50.6725 214.219C50.6921 214.188 50.7123 214.16 50.7321 214.134M49.543 214.413L81.4548 190.441C79.9157 191.469 77.0512 193.646 76.0904 194.376C75.9527 194.481 75.8541 194.556 75.8041 194.594C74.7822 195.366 73.7622 196.141 72.7423 196.916C71.4989 197.86 70.2555 198.805 69.0083 199.745M49.543 214.413C41.8154 208.381 34.5215 201.875 27.8844 194.65L49.543 214.413ZM50.7321 214.134C50.7397 214.14 50.7473 214.147 50.7549 214.153C50.7725 214.168 50.7886 214.181 50.8034 214.192C50.8961 214.101 50.9785 214.007 51.0497 213.909C51.0518 213.906 51.0539 213.903 51.0559 213.9C51.0888 213.854 51.1193 213.808 51.1472 213.761L51.1949 213.789L51.1993 213.785C51.2209 213.763 51.2466 213.737 51.2741 213.71C51.2752 213.709 51.2763 213.708 51.2773 213.707M50.7321 214.134C50.6719 214.082 50.6108 214.025 50.5325 213.952L50.5045 213.926C50.4121 213.84 50.2906 213.728 50.159 213.625L50.1583 213.624C42.4648 207.619 35.2135 201.15 28.6208 193.974C28.5167 193.86 28.4171 193.752 28.3218 193.648C27.6459 192.914 27.1839 192.411 26.874 192.011C26.7021 191.788 26.6101 191.638 26.562 191.534C26.5393 191.485 26.5298 191.454 26.5257 191.436C26.5219 191.42 26.5219 191.413 26.522 191.411C26.5222 191.399 26.5268 191.27 26.8808 190.806C27.0702 190.558 27.2863 190.301 27.5544 189.982C27.7985 189.691 28.0856 189.35 28.4347 188.917L28.4349 188.917C32.392 184.009 36.9444 179.49 41.6876 175.263L41.6876 175.263C45.2042 172.13 48.9445 169.275 52.756 166.365C54.158 165.295 55.5695 164.218 56.9831 163.117L56.9837 163.116C57.0557 163.06 57.1578 163.068 57.2188 163.131C57.219 163.131 57.2191 163.132 57.2192 163.132L60.1937 166.239L71.5353 179.177L71.5577 179.202L71.564 179.208C72.6732 180.447 73.7758 181.689 74.8806 182.934C75.444 183.569 76.008 184.204 76.5737 184.84C77.4229 185.796 78.2742 186.746 79.1272 187.696L79.128 187.697C79.5655 188.183 80.0053 188.668 80.4451 189.151M50.7321 214.134C50.7799 214.071 50.8255 214.021 50.8564 213.988C50.9034 213.939 50.9497 213.895 50.9749 213.872L50.9752 213.871C50.9932 213.854 51.0011 213.847 51.0032 213.845M51.2773 213.707L51.5958 213.923L51.6085 213.931L52.1244 214.281C52.1545 214.253 52.1846 214.224 52.2146 214.195C52.3203 214.095 52.4259 213.995 52.5345 213.896C52.8963 213.572 53.2557 213.242 53.6126 212.913M51.2773 213.707L51.2134 213.663C51.2322 213.639 51.2483 213.624 51.2483 213.624C51.2482 213.624 51.2415 213.63 51.2243 213.644C51.2141 213.653 51.1702 213.689 51.1398 213.716C51.1035 213.747 51.0548 213.791 51.0032 213.845M51.2773 213.707C51.2967 213.688 51.3169 213.668 51.3371 213.649L51.3411 213.645C51.3922 213.597 51.4497 213.543 51.5105 213.485C51.6233 213.378 51.7474 213.26 51.8626 213.156L51.8667 213.152C52.2234 212.832 52.5788 212.506 52.9342 212.178M53.6126 212.913C54.1693 212.398 54.7231 211.881 55.2768 211.364C55.7634 210.91 56.2498 210.456 56.7378 210.004M53.6126 212.913L52.9339 212.178C52.934 212.178 52.9341 212.178 52.9342 212.178M53.6126 212.913L52.9342 212.178M56.7378 210.004L56.9857 209.773C59.9126 207.048 62.8694 204.333 66.0764 201.946M56.7378 210.004L56.056 209.272L56.0569 209.271L56.7378 210.004ZM66.0764 201.946C67.0554 201.216 68.0318 200.48 69.0083 199.745M66.0764 201.946L65.4785 201.144C65.4787 201.144 65.479 201.144 65.4792 201.144M66.0764 201.946L65.4792 201.144M69.0083 199.745L68.4068 198.946M69.0083 199.745L68.4064 198.947C68.4065 198.946 68.4067 198.946 68.4068 198.946M68.4068 198.946C69.6554 198.005 70.8937 197.064 72.1336 196.122C73.1528 195.348 74.1731 194.573 75.2011 193.796L75.2032 193.794C75.249 193.76 75.3418 193.689 75.4727 193.59C76.4127 192.875 79.3169 190.667 80.8908 189.615M68.4068 198.946C67.4303 199.681 66.4559 200.415 65.4792 201.144M80.8908 189.615L56.3038 209.041L56.3043 209.041C59.2294 206.318 62.2228 203.568 65.4792 201.144M80.8908 189.615C80.8921 189.616 80.8934 189.617 80.8947 189.619L80.8947 189.619L80.9027 189.627C80.9033 189.627 80.9035 189.628 80.9035 189.628C80.9035 189.628 80.9032 189.627 80.9028 189.627C80.9027 189.627 80.9027 189.627 80.9026 189.626C80.9016 189.625 80.9007 189.623 80.9 189.621C80.8996 189.62 80.8993 189.619 80.8991 189.618C80.8989 189.617 80.8988 189.616 80.8988 189.615C80.8988 189.614 80.8988 189.614 80.8988 189.614C80.8989 189.613 80.8991 189.612 80.9001 189.61C80.9002 189.61 80.9002 189.61 80.9003 189.61C80.9005 189.609 80.9006 189.609 80.9008 189.609C80.9013 189.608 80.9018 189.607 80.9023 189.607C80.9029 189.606 80.9026 189.607 80.9004 189.608L80.8994 189.609C80.8965 189.611 80.8936 189.613 80.8908 189.615ZM80.8908 189.615C80.8624 189.586 80.8319 189.555 80.8 189.522C80.6894 189.41 80.5618 189.28 80.4451 189.151M80.8908 189.615L52.9342 212.178M80.4451 189.151L81.1847 188.478L80.4446 189.151C80.4448 189.151 80.445 189.151 80.4451 189.151ZM51.0032 213.845C51.0024 213.846 51.0016 213.846 51.0008 213.847L51.0008 213.847L50.993 213.856C50.996 213.852 50.9988 213.849 51.0008 213.847C51.0027 213.845 51.0038 213.844 51.0038 213.844C51.0038 213.844 51.0036 213.844 51.0032 213.845Z" stroke="white" stroke-width="2"/>
<path d="M187.693 192.388C187.65 192.261 187.609 192.139 187.571 192.025C187.538 191.923 187.506 191.828 187.477 191.743C187.374 191.441 187.287 191.214 187.184 191.015L187.183 191.014C187.028 190.711 186.874 190.409 186.721 190.11C186.019 188.732 185.336 187.394 184.551 186.115C183.355 184.168 182.131 182.237 180.902 180.3L180.732 180.032C179.561 178.186 178.385 176.334 177.232 174.467L177.231 174.467C176.731 173.656 176.394 173.551 176.25 173.54C176.048 173.524 175.646 173.632 174.928 174.246C174.417 174.684 173.906 175.122 173.395 175.561C169.783 178.658 166.153 181.772 162.404 184.734M187.693 192.388L161.784 183.949M187.693 192.388C187.683 192.409 187.674 192.429 187.665 192.448C187.644 192.493 187.625 192.535 187.607 192.574C187.558 192.68 187.516 192.77 187.47 192.864C187.336 193.129 187.256 193.215 187.22 193.241L187.218 193.242C184.748 195.043 182.292 196.856 179.838 198.667C172.995 203.717 166.172 208.753 159.126 213.471L159.683 214.302L159.126 213.471C153.785 217.048 148.159 220.185 142.495 223.342C140.794 224.291 139.089 225.241 137.387 226.206L137.387 226.207C135.749 227.136 135.114 227.25 134.655 227.125C134.41 227.058 134.112 226.894 133.683 226.52C133.251 226.143 132.754 225.613 132.095 224.884M187.693 192.388L121.492 213.999M162.404 184.734L161.784 183.949M162.404 184.734C162.404 184.734 162.405 184.734 162.405 184.734L161.784 183.949M162.404 184.734C162.117 184.961 161.83 185.188 161.542 185.416C155.612 190.105 149.652 194.817 143.469 199.213M161.784 183.949C161.499 184.175 161.214 184.401 160.928 184.626C154.993 189.32 149.051 194.018 142.889 198.398M143.469 199.213L142.889 198.398M143.469 199.213C138.862 202.487 134.105 205.576 129.37 208.65C127.197 210.061 125.028 211.469 122.88 212.891L122.88 212.891C122.288 213.283 121.909 213.562 121.676 213.786C121.563 213.895 121.513 213.964 121.492 213.999M143.469 199.213C143.469 199.213 143.469 199.213 143.469 199.213L142.889 198.398M142.889 198.398L121.492 213.999M121.492 213.999C121.506 214.038 121.543 214.119 121.638 214.255C121.827 214.525 122.147 214.877 122.653 215.382L122.654 215.382C123.6 216.328 124.567 217.271 125.54 218.219C127.761 220.383 130.009 222.574 132.095 224.884M132.095 224.884L131.352 225.554L132.094 224.884C132.094 224.884 132.094 224.884 132.095 224.884ZM121.484 213.97C121.484 213.97 121.484 213.971 121.484 213.973L121.484 213.97ZM121.478 214.025C121.478 214.025 121.478 214.024 121.479 214.022C121.478 214.024 121.478 214.025 121.478 214.025Z" stroke="white" stroke-width="2"/>
<path d="M79.5742 231.72L79.5719 231.719C79.3145 231.609 79.061 231.501 78.8089 231.393C78.4345 231.233 78.0633 231.075 77.687 230.912C76.4468 230.371 75.2444 229.824 74.0991 229.187L74.0984 229.187C70.3069 227.082 66.5997 224.812 62.8873 222.515L62.8872 222.515C61.3816 221.584 59.9098 220.656 58.5174 219.631L58.5173 219.631C58.325 219.49 58.1 219.342 57.9062 219.215C57.8194 219.157 57.7389 219.104 57.6703 219.058C57.4135 218.884 57.2291 218.742 57.0954 218.601C56.9709 218.469 56.9097 218.358 56.8805 218.246C56.8512 218.133 56.8348 217.945 56.9183 217.631C56.9832 217.388 57.0998 217.137 57.2618 216.865L57.2636 216.862C58.7177 214.407 61.0539 212.59 63.5386 210.751L63.5388 210.751C70.6648 205.474 78.0038 200.488 85.3621 195.495L85.3638 195.494C85.6467 195.301 85.8789 195.155 86.095 195.065C86.3024 194.979 86.4244 194.975 86.5021 194.991L86.504 194.991C86.6534 195.021 86.834 195.151 87.2265 195.537L87.2279 195.539C87.7148 196.016 88.2016 196.495 88.6887 196.974C91.3723 199.612 94.0649 202.258 96.8248 204.836L96.8249 204.836C99.1831 207.038 101.599 209.187 104.005 211.327C104.951 212.169 105.896 213.01 106.835 213.852C107.293 214.262 107.587 214.559 107.764 214.79C107.844 214.895 107.882 214.964 107.9 215.002C107.882 215.028 107.852 215.067 107.8 215.121C107.628 215.301 107.322 215.537 106.81 215.863L106.809 215.863C104.896 217.081 102.931 218.225 100.946 219.375C100.853 219.429 100.761 219.482 100.668 219.536C98.7787 220.631 96.8714 221.736 95.0034 222.907L95.0033 222.907C92.4725 224.493 89.9864 226.14 87.5133 227.785C87.0003 228.126 86.4987 228.467 86.0028 228.804C84.2568 229.99 82.5825 231.127 80.7365 232.053C80.5926 232.124 80.5291 232.125 80.5155 232.125C80.4901 232.125 80.4338 232.12 80.2752 232.051C80.1977 232.017 80.1166 231.977 80.0058 231.923L79.9836 231.912C79.8682 231.855 79.7287 231.787 79.5742 231.72ZM107.921 214.964C107.921 214.964 107.921 214.966 107.919 214.97C107.92 214.966 107.921 214.964 107.921 214.964Z" stroke="white" stroke-width="2"/>
<path d="M165.002 6.92554C164.921 6.82053 164.837 6.70465 164.755 6.58371C165.106 6.73876 165.455 6.88945 165.801 7.03875C167.177 7.63327 168.503 8.20585 169.719 8.94461L169.753 8.96522L169.788 8.98308C175.933 12.0777 181.808 15.6385 187.271 19.8028L187.271 19.8029C190.124 21.9778 192.053 24.1945 193.551 27.4068L193.551 27.4069C195.91 32.467 197.368 37.9236 197.782 43.489C198.128 48.1404 197.584 52.7185 197.026 57.4163C196.89 58.5611 196.753 59.713 196.628 60.8748C196.54 60.8163 196.442 60.7435 196.337 60.657C189.347 54.896 182.32 49.1793 175.296 43.4643C174.729 43.0033 174.163 42.5422 173.596 42.0811C172.994 41.5912 172.711 41.1124 172.568 40.581C172.412 40.0064 172.403 39.3107 172.47 38.3449L172.47 38.3448C173.11 29.1201 173.109 19.1438 167.775 10.7737L167.775 10.7737C166.913 9.42075 165.942 8.15281 165.002 6.92588L165.002 6.92554Z" stroke="white" stroke-width="2"/>
<path d="M211.084 43.1271L211.084 43.127C209.003 40.4565 206.82 37.8617 204.545 35.3524C204.21 34.9843 203.884 34.6146 203.559 34.2465C202.839 33.4317 202.127 32.6248 201.353 31.8604C200.926 31.4385 200.493 31.0429 200.048 30.6834C201.178 34.0954 202.231 37.5874 202.82 41.1878L202.82 41.1884C203.448 45.0454 203.532 48.9448 203.524 52.7673L211.084 43.1271ZM211.084 43.1271C215.249 48.4703 219.016 54.1285 222.343 60.0358C223.8 62.6241 224.62 65.4845 224.653 68.4566C224.696 73.1012 224.349 77.7314 223.999 82.4038C223.913 83.5562 223.826 84.7112 223.746 85.8695L223.745 85.8701M211.084 43.1271L223.745 85.8701M223.745 85.8701C223.728 86.123 223.685 86.3516 223.613 86.5516L223.613 86.552M223.745 85.8701L223.613 86.552M223.613 86.552C223.593 86.6084 223.574 86.6559 223.557 86.6957L223.613 86.552ZM207.169 70.6602L207.169 70.6602C209.315 72.7748 211.464 74.8845 213.616 76.9973L213.644 77.0249C213.644 77.025 213.644 77.0251 213.644 77.0252C214.663 78.0251 215.659 79.0459 216.646 80.059L216.751 80.1667C217.704 81.1459 218.65 82.1171 219.614 83.0686C220.612 84.0543 221.62 85.0153 222.663 85.9291C222.663 85.9293 222.663 85.9295 222.664 85.9298L207.169 70.6602ZM207.169 70.6602C206.763 70.2598 206.353 69.8532 205.942 69.4448C205.298 68.8049 204.649 68.1605 204 67.5283L204 67.5279M207.169 70.6602L204 67.5279M204 67.5279C203.208 66.7577 202.837 66.2725 202.664 65.7955C202.5 65.343 202.469 64.7658 202.688 63.7156L202.688 63.7153M204 67.5279L202.688 63.7153M202.688 63.7153C203.452 60.0473 203.519 56.3832 203.524 52.7679L202.688 63.7153Z" stroke="white" stroke-width="2"/>
<path d="M190.604 199.117C190.461 199.166 190.396 199.201 190.361 199.226L190.36 199.226C188.161 200.812 185.963 202.412 183.764 204.014C180.073 206.703 176.375 209.397 172.647 212.033M190.604 199.117L172.07 211.216M190.604 199.117C192.407 203.055 192.262 207.138 191.429 211.125C191.008 213.138 189.232 215.414 187.357 216.837M190.604 199.117L187.357 216.837M172.647 212.033L172.07 211.216M172.647 212.033C172.647 212.032 172.648 212.032 172.648 212.032L172.07 211.216M172.647 212.033C169.175 214.491 165.632 216.96 161.907 219.105L161.907 219.105C159.19 220.67 156.46 222.207 153.723 223.725M172.07 211.216C168.598 213.675 165.088 216.119 161.408 218.239C158.696 219.8 155.97 221.335 153.236 222.852M153.723 223.725C153.724 223.725 153.724 223.725 153.725 223.725L153.236 222.852M153.723 223.725C153.723 223.726 153.722 223.726 153.722 223.726L153.236 222.852M153.723 223.725C153.585 223.803 153.447 223.879 153.311 223.954L153.31 223.955C153.172 224.03 153.038 224.105 152.904 224.179L152.901 224.181C150.414 225.559 147.923 226.933 145.421 228.287C144.169 228.967 142.916 229.639 141.66 230.306M153.236 222.852C153.1 222.928 152.963 223.004 152.826 223.079C152.689 223.155 152.552 223.23 152.416 223.307C149.93 224.684 147.442 226.056 144.944 227.408C143.695 228.087 142.443 228.758 141.189 229.424C140.988 229.532 140.789 229.644 140.59 229.757C140.265 229.94 139.939 230.124 139.605 230.287C139.489 230.344 139.371 230.397 139.252 230.45C138.876 230.619 138.499 230.788 138.188 231.067C138.012 231.224 137.861 231.414 137.784 231.637C137.623 232.092 137.796 232.599 138.027 233.024M141.66 230.306C141.661 230.306 141.661 230.306 141.661 230.306L141.189 229.425L141.658 230.307C141.659 230.307 141.66 230.307 141.66 230.306ZM141.66 230.306C141.502 230.391 141.321 230.493 141.13 230.601C140.782 230.797 140.397 231.013 140.045 231.186L140.042 231.187C139.912 231.25 139.781 231.309 139.665 231.361L139.646 231.37C139.521 231.426 139.413 231.475 139.31 231.525C139.105 231.626 138.963 231.715 138.855 231.812L138.854 231.812C138.756 231.901 138.732 231.954 138.73 231.962L138.726 231.971L138.726 231.971C138.725 231.976 138.711 232.018 138.735 232.127C138.76 232.24 138.816 232.382 138.906 232.548M138.906 232.548C138.906 232.548 138.906 232.548 138.906 232.548L138.027 233.024M138.906 232.548L138.027 233.024M138.906 232.548C139.218 233.123 139.496 233.741 139.755 234.317C139.861 234.553 139.964 234.782 140.065 234.998M138.027 233.024C138.32 233.565 138.573 234.127 138.825 234.689C138.935 234.934 139.046 235.178 139.159 235.422M139.159 235.422L140.065 234.997C140.065 234.998 140.065 234.998 140.065 234.998M139.159 235.422C139.405 235.945 139.697 236.462 140.126 236.848C140.979 237.618 141.971 237.367 142.963 237.115C143.126 237.074 143.289 237.032 143.452 236.995C144.689 236.715 145.925 236.427 147.157 236.127C152.51 234.827 157.822 233.312 162.967 231.328M139.159 235.422L140.065 234.999C140.065 234.998 140.065 234.998 140.065 234.998M140.065 234.998C140.295 235.49 140.519 235.856 140.795 236.105L140.796 236.106C141.036 236.323 141.283 236.387 141.655 236.359C141.969 236.335 142.258 236.261 142.627 236.167C142.805 236.122 143.003 236.072 143.231 236.02C144.464 235.741 145.695 235.454 146.92 235.156L146.921 235.156C152.25 233.861 157.516 232.358 162.607 230.395M162.607 230.395L162.967 231.328M162.607 230.395C162.607 230.395 162.607 230.395 162.607 230.395L162.967 231.328M162.607 230.395C171.416 226.995 179.812 222.558 187.357 216.837M162.967 231.328C171.849 227.9 180.33 223.42 187.961 217.634M187.961 217.634L187.357 216.837M187.961 217.634C189.944 216.129 191.919 213.665 192.407 211.329C193.255 207.272 193.438 202.986 191.563 198.812L187.961 217.634Z" stroke="white" stroke-width="2"/>
<path d="M236.871 140.288C237.192 139.68 237.513 139.067 237.825 138.447C235.623 148.616 231.642 160.023 227.697 168.516C222.975 178.683 216.991 187.704 211.411 194.631C206.989 200.12 202.866 204.237 199.864 206.573C199.873 206.541 199.882 206.508 199.892 206.475C200.145 205.565 200.231 204.584 200.304 203.744C200.312 203.653 200.32 203.564 200.328 203.477L200.328 203.476C200.509 201.459 200.521 199.434 200.415 197.428L200.415 197.427C200.339 196.013 200.205 194.605 200.029 193.205L200.029 193.205C200.023 193.155 200.017 193.105 200.011 193.056C199.904 192.22 199.816 191.523 199.89 190.842L199.89 190.841C199.978 190.028 200.412 189.418 201.125 188.573C201.658 187.943 202.235 187.408 202.859 186.83C203.161 186.551 203.473 186.262 203.797 185.947L203.797 185.946C205.694 184.097 207.561 182.217 209.392 180.3L209.392 180.299C213.053 176.462 216.567 172.471 219.852 168.289L219.852 168.289C221.172 166.607 222.455 164.896 223.696 163.154L223.696 163.154C227.837 157.34 231.4 151.259 234.489 144.875L234.489 144.875C235.068 143.677 235.7 142.489 236.345 141.278C236.52 140.95 236.695 140.62 236.871 140.288Z" stroke="white" stroke-width="2"/>
<path d="M132.242 237.884C131.539 236.879 130.642 235.972 129.674 235.057L129.674 235.056C126.949 232.479 124.215 229.913 121.473 227.355C119.814 225.807 118.15 224.265 116.482 222.73L132.242 237.884ZM132.242 237.884C131.818 237.954 131.395 238.021 130.972 238.084M132.242 237.884L130.972 238.084M130.972 238.084C130.06 238.22 129.146 238.339 128.23 238.444L128.23 238.444C126.42 238.65 124.605 238.798 122.787 238.888L122.786 238.888C119.204 239.068 115.609 239.025 112.023 238.796C108.448 238.567 104.884 238.157 101.335 237.61L101.183 238.599L101.335 237.61C97.3546 236.997 93.4118 236.175 89.4411 235.347C88.6297 235.178 87.8172 235.009 87.0029 234.841C87.0629 234.786 87.1324 234.726 87.2122 234.662C87.7316 234.244 88.3856 233.87 88.7583 233.657C88.8126 233.626 88.8609 233.598 88.902 233.574L88.9021 233.574C96.2562 229.296 103.551 224.914 110.783 220.434L110.784 220.433C111.608 219.921 112.178 219.63 112.708 219.673L130.972 238.084ZM114.49 220.727C113.765 220.061 113.177 219.711 112.708 219.673L114.49 220.727ZM114.49 220.727C114.833 221.042 115.167 221.388 115.502 221.739M114.49 220.727L115.502 221.739M115.502 221.739C115.526 221.765 115.55 221.79 115.574 221.815M115.502 221.739L115.574 221.815M115.574 221.815C115.876 222.132 116.188 222.46 116.481 222.729L115.574 221.815ZM86.695 235.194C86.6949 235.194 86.6952 235.193 86.696 235.191C86.6954 235.193 86.695 235.194 86.695 235.194Z" stroke="white" stroke-width="2"/>
<path d="M238.377 109.471C238.377 109.463 238.377 109.455 238.377 109.447C238.377 108.157 238.278 106.585 238.088 104.814C237.71 101.273 236.978 96.9887 235.999 92.6608C235.019 88.3324 233.797 83.9832 232.443 80.3086C231.651 78.158 230.829 76.2801 230.005 74.7822C229.996 75.1439 229.973 75.5051 229.929 75.868L229.929 75.8682C229.651 78.151 229.349 80.3898 229.049 82.6214C228.694 85.2524 228.341 87.8735 228.029 90.545L238.377 109.471ZM238.377 109.471C238.224 109.215 238.071 108.959 237.917 108.703L237.917 108.703C237.669 108.288 237.421 107.874 237.174 107.459L237.173 107.458L237.166 107.446C236.164 105.773 235.163 104.1 234.165 102.428L238.377 109.471ZM234.165 102.428C232.879 100.273 231.602 98.1159 230.326 95.9534C230.326 95.9533 230.326 95.9531 230.326 95.953L229.464 96.461L234.165 102.428Z" stroke="white" stroke-width="2"/>
<mask id="path-15-inside-1_99_1051" fill="white">
<path d="M89.9284 2.78601C82.8576 5.22771 75.011 8.8497 68.6143 11.884L70.9861 9.6095C72.6813 7.87843 76.9342 6.65143 79.2713 5.9826L89.9284 2.78601Z"/>
</mask>
<path d="M89.9284 2.78601L90.5812 4.67647L89.3538 0.870332L89.9284 2.78601ZM68.6143 11.884L67.23 10.4405L69.4714 13.691L68.6143 11.884ZM70.9861 9.6095L72.3704 11.053L72.393 11.0313L72.415 11.0088L70.9861 9.6095ZM79.2713 5.9826L79.8216 7.90541L79.8338 7.90192L79.8459 7.89828L79.2713 5.9826ZM89.2756 0.895552C82.0883 3.37747 74.1512 7.04393 67.7571 10.077L69.4714 13.691C75.8708 10.6555 83.6269 7.07795 90.5812 4.67647L89.2756 0.895552ZM69.9985 13.3275L72.3704 11.053L69.6018 8.16598L67.23 10.4405L69.9985 13.3275ZM72.415 11.0088C72.9367 10.4761 74.0626 9.8619 75.61 9.26282C77.0815 8.69319 78.6467 8.24165 79.8216 7.90541L78.7211 4.05979C77.5589 4.39238 75.8291 4.88875 74.166 5.53259C72.5789 6.14699 70.7307 7.0118 69.5571 8.21016L72.415 11.0088ZM79.8459 7.89828L90.503 4.70169L89.3538 0.870332L78.6967 4.06692L79.8459 7.89828Z" fill="white" mask="url(#path-15-inside-1_99_1051)"/>
<path d="M1.22278 112.888L1.22319 112.867L11.8337 87.1739L1.77676 137.384C0.760401 130.61 0.970665 122.683 1.14043 116.283C1.172 115.093 1.20216 113.956 1.22278 112.888ZM1.16763 112.52C1.16728 112.519 1.16738 112.519 1.16782 112.521L1.16763 112.52Z" stroke="white" stroke-width="2"/>
<mask id="path-18-inside-2_99_1051" fill="white">
<path d="M22.8235 79.3862L23.7529 179.351C23.7529 179.501 23.7034 179.644 23.6067 179.759L20.5855 183.357C20.3129 183.681 19.7999 183.652 19.5669 183.298C10.154 168.935 7.63346 158.672 7.49219 154.27C7.33358 152.615 7.75986 151.01 8.09444 149.242C8.34972 147.889 8.67686 146.544 8.96436 145.199C9.5443 142.502 10.1168 139.802 10.6844 137.102C12.1516 130.126 13.6188 123.15 15.0835 116.177C16.5755 109.075 18.07 101.974 19.562 94.8725C20.6475 89.7112 21.733 84.5499 22.8186 79.3887"/>
</mask>
<path d="M23.7529 179.351H25.7529V179.342L25.7528 179.332L23.7529 179.351ZM23.6067 179.759L25.1382 181.045L25.1409 181.042L23.6067 179.759ZM20.5855 183.357L22.117 184.643L22.1171 184.643L20.5855 183.357ZM19.5669 183.298L17.8942 184.394L17.8961 184.397L19.5669 183.298ZM7.49219 154.27L9.49116 154.206L9.48913 154.142L9.48307 154.079L7.49219 154.27ZM8.09444 149.242L10.0596 149.613L10.0597 149.613L8.09444 149.242ZM8.96436 145.199L7.00904 144.779L7.00854 144.781L8.96436 145.199ZM10.6844 137.102L8.72718 136.69L8.72714 136.69L10.6844 137.102ZM15.0835 116.177L13.1262 115.765L13.1262 115.765L15.0835 116.177ZM19.562 94.8725L17.6048 94.4608L17.6047 94.4613L19.562 94.8725ZM20.8236 79.4048L21.753 179.37L25.7528 179.332L24.8234 79.3676L20.8236 79.4048ZM21.7529 179.351C21.7529 179.051 21.8561 178.735 22.0725 178.476L25.1409 181.042C25.5506 180.552 25.7529 179.951 25.7529 179.351H21.7529ZM22.0751 178.473L19.054 182.07L22.1171 184.643L25.1382 181.045L22.0751 178.473ZM19.0541 182.07C19.6407 181.372 20.7334 181.432 21.2377 182.198L17.8961 184.397C18.8664 185.872 20.9851 185.99 22.117 184.643L19.0541 182.07ZM21.2397 182.201C11.9465 168.021 9.61662 158.115 9.49116 154.206L5.49322 154.334C5.6503 159.228 8.36152 169.849 17.8942 184.394L21.2397 182.201ZM9.48307 154.079C9.35964 152.791 9.6855 151.59 10.0596 149.613L6.12932 148.87C5.83421 150.429 5.30751 152.439 5.50132 154.461L9.48307 154.079ZM10.0597 149.613C10.3104 148.284 10.6155 147.043 10.9202 145.617L7.00854 144.781C6.73823 146.046 6.38902 147.494 6.12915 148.871L10.0597 149.613ZM10.9197 145.619C11.5004 142.918 12.0736 140.215 12.6416 137.513L8.72714 136.69C8.16006 139.388 7.5882 142.085 7.00904 144.779L10.9197 145.619ZM12.6415 137.514C14.1087 130.538 15.576 123.561 17.0408 116.588L13.1262 115.765C11.6616 122.739 10.1944 129.714 8.72718 136.69L12.6415 137.514ZM17.0408 116.588C17.7867 113.037 18.5333 109.487 19.2799 105.936C20.0265 102.385 20.7732 98.8346 21.5192 95.2837L17.6047 94.4613C16.8587 98.0117 16.1122 101.562 15.3655 105.113C14.6189 108.664 13.8723 112.214 13.1262 115.765L17.0408 116.588ZM21.5191 95.2841C22.0619 92.7035 22.6047 90.1229 23.1474 87.5422C23.6902 84.9616 24.233 82.381 24.7757 79.8003L20.8614 78.977C20.3186 81.5577 19.7759 84.1383 19.2331 86.7189C18.6903 89.2996 18.1475 91.8802 17.6048 94.4608L21.5191 95.2841Z" fill="white" mask="url(#path-18-inside-2_99_1051)"/>
<path d="M49.2043 157.897L33.9081 170.542V88.2308L49.2043 157.897Z" stroke="white" stroke-width="2"/>
<mask id="path-21-inside-3_99_1051" fill="white">
<path d="M42.3433 78.0879C42.2541 77.8813 41.9418 77.9797 41.9864 78.1985L57.3747 152.249C57.402 152.379 57.5532 152.441 57.6647 152.364L69.6081 142.944"/>
</mask>
<path d="M70.5279 142.552L42.9062 77.8061L41.0666 78.5909L68.6883 143.337L70.5279 142.552ZM41.9864 78.1985L40.0267 78.598L40.0282 78.6054L41.9864 78.1985ZM57.3747 152.249L55.4166 152.656L55.4171 152.658L57.3747 152.249ZM57.6647 152.364L58.7932 154.016L58.8496 153.977L58.9033 153.935L57.6647 152.364ZM44.1793 77.2948C43.154 74.9212 39.4931 75.9802 40.0267 78.598L43.9461 77.799C44.3905 79.9792 41.3541 80.8414 40.5073 78.881L44.1793 77.2948ZM40.0282 78.6054L55.4166 152.656L59.3329 151.842L43.9446 77.7916L40.0282 78.6054ZM55.4171 152.658C55.7372 154.188 57.5078 154.894 58.7932 154.016L56.5362 150.713C57.5985 149.987 59.0668 150.57 59.3323 151.839L55.4171 152.658ZM58.9033 153.935L70.8466 144.515L68.3695 141.374L56.4261 150.794L58.9033 153.935Z" fill="white" mask="url(#path-21-inside-3_99_1051)"/>
<path d="M104.488 115.32L95.3529 123.278L63.938 74.6459L104.488 115.32Z" stroke="white" stroke-width="2"/>
<path d="M113.09 107.721L72.2394 68.6259L120.964 100.606C118.538 103.33 116.447 105.259 114.575 106.69V106.364L113.09 107.721Z" stroke="white" stroke-width="2"/>
<path d="M128.578 93.5761L127.943 92.932L127.945 92.9298L127.945 92.9296M128.578 93.5761L73.6063 57.4069L78.0602 59.2355M128.578 93.5761L127.91 92.9665C127.821 93.0634 127.666 93.0839 127.551 93.0063L128.578 93.5761ZM127.945 92.9296L128.667 93.6226C131.93 90.4134 134.849 87.2827 137.231 84.2745C137.823 83.6278 137.59 82.595 136.777 82.2606M127.945 92.9296C131.2 89.7298 134.095 86.6243 136.447 83.6538L136.469 83.6256L136.494 83.5991C136.613 83.4686 136.572 83.2573 136.397 83.1854M127.945 92.9296L127.551 93.0061L78.0602 59.2355M136.777 82.2606L74.0832 56.5217L78.0602 59.2355M136.777 82.2606L136.397 83.1854M136.777 82.2606L136.398 83.1857L136.397 83.1854M78.0602 59.2355L136.397 83.1854M70.1124 54.8916L70.1037 54.888L70.8318 55.5137C70.8591 55.4788 70.8835 55.4425 70.9045 55.4054C70.9323 55.3566 70.9566 55.3032 70.9762 55.2462L70.1129 54.8917L70.1124 54.8916Z" stroke="white" stroke-width="2"/>
<path d="M145.528 73.5949C145.225 74.0314 144.922 74.4688 144.62 74.9053L81.3148 48.664L152.88 62.466C151.545 64.9208 148.567 69.2147 145.528 73.5949Z" stroke="white" stroke-width="2"/>
<path d="M157.089 53.0807L83.4975 38.4567H162.096C160.866 45.0552 158.863 50.0829 157.089 53.0807Z" stroke="white" stroke-width="2"/>
<path d="M159.727 12.0511C161.947 17.2465 163.004 22.6024 163.037 28.1044L82.7574 28.7559L159.727 12.0511Z" stroke="white" stroke-width="2"/>
<path d="M151.346 4.60907L82.3125 18.0232C83.9136 17.3841 85.4116 16.7726 86.5941 16.2479L86.5943 16.2478C90.0635 14.7074 93.5327 13.1663 97.0019 11.6254L97.0111 11.6212L97.018 11.6182C100.488 10.0769 103.958 8.53562 107.427 6.99496L151.346 4.60907ZM151.346 4.60907C150.959 4.48103 150.566 4.36081 150.169 4.24538L150.169 4.24521C142.93 2.13653 135.511 1.69469 127.907 1.24183C127.145 1.19651 126.382 1.15107 125.618 1.10384L151.346 4.60907ZM121.263 1.10263C122.658 0.924777 124.087 1.00941 125.618 1.10384L107.428 6.99486C108.567 6.48952 109.705 5.98358 110.844 5.47775L110.844 5.47763C111.983 4.97169 113.122 4.46586 114.26 3.96066L114.261 3.96053C114.871 3.68936 115.478 3.3861 116.069 3.08782C116.134 3.05516 116.199 3.02258 116.263 2.99008C116.793 2.7225 117.31 2.46121 117.832 2.21733C119.005 1.66957 120.129 1.24671 121.262 1.10267L121.263 1.10263Z" stroke="white" stroke-width="2"/>
<path d="M76.7307 136.463L53.6879 80.9701L86.5769 129.188L76.7307 136.463Z" stroke="white" stroke-width="2"/>
</g>
<defs>
<clipPath id="clip0_99_1051">
<rect width="240" height="240" fill="white"/>
</clipPath>
</defs>
</svg>
