<svg width="157" height="48" viewBox="0 0 157 48" fill="none" xmlns="http://www.w3.org/2000/svg">
<path d="M51.8401 22.0407V1.13232H57.2318V22.0407H51.8401ZM72.6545 22.0407L69.1436 14.9563H66.3851V22.0407H60.9934V1.13232H71.4633C76.1026 1.13232 78.7358 4.20432 78.7358 8.09134C78.7358 11.7276 76.5101 13.6711 74.5666 14.3607L78.8298 22.0407H72.6545ZM73.25 8.02864C73.25 6.58668 72.0589 5.67762 70.6483 5.67762H66.3851V10.3797H70.6483C72.0589 10.3797 73.25 9.4706 73.25 8.02864ZM81.7176 22.0407V1.13232H87.1093V22.0407H81.7176ZM89.3663 19.0941L92.2189 15.0504C93.7235 16.555 96.0432 17.8089 98.8958 17.8089C100.745 17.8089 101.874 17.0252 101.874 16.0221C101.874 14.8309 100.526 14.3607 98.3002 13.8905C94.852 13.2009 90.0241 12.3232 90.0241 7.37036C90.0241 3.8595 93.0025 0.818848 98.3629 0.818848C101.717 0.818848 104.632 1.82195 106.858 3.73411L103.911 7.58979C102.156 6.14783 99.8675 5.42685 98.018 5.42685C96.2313 5.42685 95.5416 6.14783 95.5416 7.05689C95.5416 8.15403 96.8269 8.53019 99.1465 8.96905C102.595 9.69003 107.359 10.6931 107.359 15.4265C107.359 19.627 104.256 22.4169 98.645 22.4169C94.4131 22.4169 91.4665 21.1003 89.3663 19.0941Z" fill="white"/>
<path d="M50.9937 44.5634L52.7804 42.1496C54.191 43.717 56.448 45.0962 59.3633 45.0962C62.7488 45.0962 63.9399 43.3722 63.9399 41.8675C63.9399 39.6732 61.5576 39.0463 58.8931 38.3567C55.539 37.4789 51.6519 36.5072 51.6519 32.244C51.6519 28.7958 54.6926 26.2881 59.0498 26.2881C62.2785 26.2881 64.8177 27.3225 66.6671 29.2034L64.849 31.523C63.2503 29.8303 61.056 29.078 58.799 29.078C56.4794 29.078 54.8807 30.2691 54.8807 32.0246C54.8807 33.9054 57.1377 34.501 59.7394 35.1593C63.1563 36.0683 67.1373 37.1341 67.1373 41.5854C67.1373 44.8455 64.8803 47.8861 59.2379 47.8861C55.5076 47.8861 52.7804 46.5382 50.9937 44.5634ZM70.7687 39.3284V26.6016H73.9347V39.2344C73.9347 42.8079 75.9096 45.0962 79.5772 45.0962C83.2448 45.0962 85.1883 42.8079 85.1883 39.2344V26.6016H88.3543V39.2971C88.3543 44.5007 85.439 47.8861 79.5772 47.8861C73.7153 47.8861 70.7687 44.4693 70.7687 39.3284ZM93.024 47.51V26.6016H101.833C106.127 26.6016 108.509 29.5482 108.509 33.0277C108.509 36.5072 106.096 39.4538 101.833 39.4538H96.1587V47.51H93.024ZM105.281 33.0277C105.281 30.8334 103.682 29.3601 101.425 29.3601H96.1587V36.6953H101.425C103.682 36.6953 105.281 35.222 105.281 33.0277ZM111.728 47.51V26.6016H120.536C124.831 26.6016 127.213 29.5482 127.213 33.0277C127.213 36.5072 124.8 39.4538 120.536 39.4538H114.863V47.51H111.728ZM123.985 33.0277C123.985 30.8334 122.386 29.3601 120.129 29.3601H114.863V36.6953H120.129C122.386 36.6953 123.985 35.222 123.985 33.0277ZM130.432 47.51V26.6016H133.567V44.7514H143.065V47.51H130.432ZM148.634 47.51V38.7642L140.453 26.6016H144.058L150.202 35.9429L156.283 26.6016H159.919L151.769 38.7642V47.51H148.634Z" fill="white"/>
<mask id="mask0_269_7157" style="mask-type:luminance" maskUnits="userSpaceOnUse" x="0" y="0" width="47" height="47">
<path d="M46.0408 0H0V46.0408H46.0408V0Z" fill="white"/>
</mask>
<g mask="url(#mask0_269_7157)">
<path d="M23.9782 20.6962C24.2478 20.9878 24.5117 21.2481 24.747 21.5326C25.9085 22.9374 27.0662 24.3449 28.2154 25.7596C28.5444 26.1643 28.5325 26.3158 28.1341 26.6714C26.6245 28.0196 25.1373 29.3965 23.5788 30.6862C22.1049 31.9055 20.555 33.0329 19.0326 34.1929C18.5533 34.558 18.0517 34.8938 17.5668 35.2519C17.3752 35.3934 17.2311 35.4273 17.0495 35.2198C15.9175 33.9259 14.7717 32.6442 13.6377 31.3513C13.3677 31.0432 13.0534 30.6262 12.8508 30.3847C12.8304 30.3602 12.8081 30.3371 12.7862 30.314C12.4567 29.9668 12.6773 29.7819 12.9635 29.5715C13.7623 28.9828 14.5677 28.4035 15.3503 27.7936C16.6364 26.7912 17.9158 25.7799 19.18 24.7501C20.496 23.6784 21.793 22.5831 23.0939 21.493C23.3915 21.2439 23.6711 20.9732 23.9782 20.6953V20.6962Z" fill="white"/>
<path d="M22.3501 40.4965C21.5837 39.7573 20.8472 39.0554 20.1208 38.3436C19.487 37.7228 18.876 37.078 18.2303 36.4699C17.9765 36.2313 18.0383 36.077 18.2651 35.9124C19.022 35.3619 19.7865 34.8223 20.5415 34.2694C21.4943 33.5722 22.4733 32.9066 23.3823 32.1557C24.851 30.9424 26.274 29.6735 27.7112 28.4221C28.0925 28.0905 28.4572 27.7395 28.8257 27.3933C29.2317 27.0117 29.2464 27.0074 29.5912 27.4376C30.3153 28.3414 31.0417 29.2443 31.7564 30.1561C32.1823 30.699 32.5665 31.2764 33.0111 31.8033C33.2545 32.0915 33.2117 32.291 32.964 32.5047C32.2631 33.1085 31.5643 33.7142 30.8554 34.3086C30.1179 34.927 29.3929 35.5633 28.6217 36.1369C27.2872 37.1285 25.9278 38.0865 24.5657 39.0403C23.8601 39.5341 23.127 39.9875 22.3501 40.4965Z" fill="white"/>
<path d="M38.2825 14.3072C38.352 14.3397 38.4171 14.4166 38.4637 14.4676C38.5807 14.5949 38.6971 14.7228 38.8136 14.8511C39.0461 15.1077 39.2772 15.3652 39.5087 15.6223C39.9713 16.136 40.4363 16.6483 40.918 17.1445C41.2113 17.4464 41.5104 17.7422 41.8189 18.0281C42.5249 18.6823 42.4204 19.2366 42.1104 19.9436C41.3948 21.5758 40.6474 23.1914 39.6694 24.6862C38.9696 25.7556 38.1955 26.7736 37.3878 27.7627C36.5581 28.7788 35.7028 29.7755 34.837 30.76C33.5362 29.0934 32.2354 27.4273 30.9345 25.7608C30.8898 25.7037 30.8442 25.6438 30.829 25.5726C30.7833 25.3547 31.0344 25.1697 31.1628 25.0264C31.3581 24.8075 31.5564 24.5905 31.7513 24.3712C32.1222 23.9532 32.4859 23.5287 32.8264 23.0852C33.8243 21.7862 34.8384 20.4913 35.7232 19.1154C36.1963 18.379 36.6038 17.6031 36.9989 16.8224C37.3887 16.0516 37.8195 15.2969 38.0596 14.461C38.0686 14.4289 38.081 14.3978 38.0995 14.3699C38.1575 14.2831 38.2217 14.2779 38.283 14.3067L38.2825 14.3072Z" fill="white"/>
<path d="M32.4205 9.47057C32.4538 9.397 32.5484 9.37579 32.6107 9.42717C33.1789 9.89468 33.7328 10.3385 34.27 10.8017C35.0778 11.498 35.8732 12.2098 36.6715 12.9174C37.4778 13.6325 37.4935 13.6731 37.0115 14.6698C36.4542 15.8203 35.9612 17.0142 35.2865 18.0921C34.4635 19.4062 33.5041 20.6374 32.5584 21.8695C31.9446 22.6695 31.249 23.4058 30.5919 24.1724C30.1061 24.7394 30.0167 24.7229 29.5327 24.1323C28.6807 23.0926 27.8044 22.0733 26.9419 21.0426C26.534 20.5553 26.1403 20.0562 25.7281 19.5728C25.5494 19.3633 25.5627 19.2161 25.751 19.0086C26.7931 17.8581 27.8562 16.7241 28.8414 15.5259C29.914 14.2216 30.8668 12.8259 31.5923 11.2895C31.8662 10.7093 32.1253 10.1229 32.4205 9.47057Z" fill="white"/>
<path d="M43.0802 19.7666C43.1434 19.7354 43.2119 19.7496 43.2851 19.8359C44.1228 20.8308 44.7295 22.0006 45.2325 23.2011C45.5306 23.9129 45.4598 24.4757 45.1712 25.1851C44.2369 27.4809 42.9898 29.648 41.4812 31.6121C40.5037 32.8848 39.4054 34.0467 38.2587 35.1656C38.1978 35.2245 38.1336 35.2859 38.0514 35.3076C37.8978 35.3476 37.7476 35.2354 37.6406 35.1179C37.4257 34.8821 37.2716 34.5986 37.1138 34.3212C36.6926 33.5806 36.2319 32.8622 35.734 32.1711C35.6028 31.9886 35.4635 31.7933 35.4554 31.5683C35.4478 31.3518 35.5657 31.1499 35.7079 30.9862C36.3369 30.2631 37.0173 29.5834 37.6468 28.8588C38.2948 28.113 38.9186 27.346 39.4967 26.5441C40.0906 25.721 40.6354 24.8615 41.1038 23.9601C41.4917 23.2139 41.8255 22.4416 42.1611 21.6709C42.329 21.2855 42.4973 20.9001 42.6732 20.518C42.7469 20.3581 42.89 19.859 43.0802 19.7656V19.7666Z" fill="white"/>
<path d="M13.8678 34.2468C14.1906 34.6072 14.511 34.9699 14.8329 35.3317C14.9955 35.5148 15.1586 35.6968 15.3221 35.8789C15.4058 35.9718 15.49 36.0648 15.5741 36.1572C15.6003 36.186 15.6284 36.2138 15.6559 36.2421C15.7406 36.327 15.7258 36.4671 15.626 36.5336C15.2884 36.7591 14.6185 37.2728 14.5419 37.3303C14.1069 37.6591 13.6738 37.9903 13.2383 38.3186C13.0509 38.4596 12.8636 38.6007 12.6758 38.7408C12.0606 39.1988 11.4934 39.7196 10.9319 40.2422C10.9162 40.2569 10.9 40.272 10.8843 40.2866C10.6842 40.4719 10.4854 40.6592 10.2848 40.8446C10.2164 40.9078 10.1474 40.971 10.078 41.0333C10.0447 41.0635 10.0128 41.0946 9.98003 41.1253C9.9501 41.1536 9.91444 41.196 9.87688 41.2135C9.87639 41.196 9.91062 41.1691 9.92253 41.1564C9.93962 41.1385 9.96151 41.1253 9.9767 41.1054C9.94721 41.155 9.91013 41.1993 9.8683 41.2385C9.83314 41.2715 9.79082 41.3031 9.73993 41.2956C9.64486 41.2809 9.5759 41.1885 9.50409 41.1323C8.02168 39.9752 6.62243 38.7271 5.3492 37.3412C4.7197 36.6558 4.78484 36.7662 5.30546 36.1209C6.07332 35.1685 6.95475 34.294 7.86955 33.4788C8.79854 32.651 9.81266 31.9203 10.8135 31.1406C10.9048 31.0693 11.035 31.0788 11.1149 31.1618L11.6888 31.7614L13.8673 34.2463L13.8678 34.2468Z" fill="white"/>
<path d="M36.2152 36.9212C36.1581 37.0175 36.1206 37.1595 36.0283 37.2264C34.2374 38.5321 32.4734 39.8789 30.633 41.1114C29.2927 42.0091 27.8564 42.7648 26.4505 43.562C25.8324 43.9129 25.7012 43.8266 25.1982 43.27C24.6272 42.6374 23.9977 42.0577 23.3939 41.4544C23.0054 41.0666 23.0116 40.9822 23.4671 40.6808C24.7831 39.8095 26.1253 38.9746 27.4114 38.0604C28.6504 37.1798 29.8428 36.2321 31.0362 35.2886C31.8535 34.6429 32.6413 33.9594 33.4329 33.2815C33.7243 33.032 33.9469 33.0192 34.1627 33.3688C34.6253 34.1174 35.1064 34.8542 35.5672 35.6037C35.7555 35.9103 35.9143 36.2354 36.0792 36.5561C36.132 36.6585 36.1605 36.7736 36.2148 36.9217L36.2152 36.9212Z" fill="white"/>
<path d="M15.4461 44.7222C15.3595 44.7222 15.2896 44.6722 15.1893 44.6288C15.0685 44.5768 14.9478 44.5259 14.827 44.4735C14.5878 44.3693 14.3501 44.2613 14.1219 44.1344C13.3902 43.7283 12.6756 43.2905 11.9634 42.8499C11.6743 42.6711 11.3862 42.4895 11.1124 42.2881C10.9122 42.1409 10.6426 42.0433 10.7339 41.7004C10.7524 41.631 10.7838 41.5659 10.8204 41.5046C11.1219 40.9956 11.6016 40.6263 12.0751 40.2758C13.4458 39.2607 14.857 38.3022 16.2681 37.3446C16.3775 37.2701 16.5029 37.1922 16.6327 37.2186C16.7264 37.2375 16.8001 37.3078 16.8681 37.3748C17.4772 37.9724 18.0824 38.5729 18.7057 39.155C19.3343 39.7418 19.9828 40.3079 20.6232 40.882C20.9793 41.2013 20.9983 41.315 20.5932 41.5725C19.8515 42.0447 19.0723 42.4574 18.3272 42.9245C17.8442 43.2273 17.3692 43.5419 16.8947 43.8575C16.4597 44.1467 16.0427 44.4533 15.574 44.6882C15.5255 44.7122 15.4841 44.7222 15.4461 44.7222Z" fill="white"/>
<path d="M31.3349 0.984641C31.3725 0.96813 31.4428 0.978984 31.5602 1.03228C31.9225 1.19785 32.3172 1.34503 32.6581 1.55211C33.8457 2.15024 34.983 2.83941 36.0418 3.64651C36.6099 4.07953 37.0017 4.52813 37.3041 5.17675C37.7663 6.1678 38.052 7.23717 38.1333 8.32868C38.2179 9.46599 38.0306 10.5859 37.9098 11.7132C37.8804 11.9854 37.7025 11.916 37.5428 11.7844C36.0941 10.5906 34.6373 9.40657 33.181 8.22161C32.8919 7.98622 32.8687 7.71923 32.8948 7.34282C33.0175 5.57436 33.0103 3.7182 32.0238 2.17005C31.8636 1.91863 31.6824 1.68183 31.5013 1.4455C31.3876 1.29739 31.2298 1.03134 31.3349 0.984641Z" fill="white"/>
<path d="M38.0266 5.44185C38.5771 5.68714 38.9846 6.21641 39.3811 6.65321C39.8209 7.13811 40.2426 7.63956 40.6448 8.15561C41.4498 9.1882 42.1777 10.2816 42.8205 11.4231C43.1148 11.9458 43.2816 12.526 43.2883 13.1307C43.2988 14.2515 43.1918 15.37 43.1138 16.4865C43.1096 16.5483 43.0986 16.6101 43.0777 16.6686C42.9574 17.0053 42.7596 16.7785 42.5885 16.6289C42.3845 16.4502 42.1881 16.2629 41.9951 16.0723C41.6085 15.6907 41.2377 15.2935 40.8502 14.9133C40.4356 14.5063 40.0215 14.0996 39.6079 13.6921C39.4053 13.4925 39.2047 13.2906 39.0007 13.0921C38.6912 12.7911 38.6047 12.6171 38.695 12.184C38.8372 11.5015 38.8505 10.816 38.8514 10.1226C38.8529 9.39102 38.8367 8.65609 38.7188 7.93251C38.5795 7.08056 38.3013 6.25839 38.0242 5.44092L38.0266 5.44185Z" fill="white"/>
<path d="M36.664 37.9653C37.1129 38.8206 37.0853 39.706 36.9108 40.5409C36.8172 40.989 36.4382 41.4617 36.0579 41.7504C34.594 42.8603 32.967 43.7197 31.263 44.3773C30.2759 44.758 29.2571 45.0486 28.2301 45.2981C27.9938 45.3556 27.7566 45.4108 27.5193 45.4646C27.2987 45.5146 27.0719 45.6084 26.8813 45.4363C26.799 45.3622 26.7429 45.2632 26.6958 45.1627C26.6241 45.0089 26.5594 44.8519 26.4785 44.7028C26.4344 44.6212 26.4011 44.524 26.432 44.4368C26.4467 44.3938 26.4757 44.3575 26.5094 44.3273C26.5879 44.257 26.6882 44.2231 26.7814 44.1778C26.8846 44.1273 26.984 44.0665 27.0853 44.0122C27.3258 43.8844 27.5659 43.7556 27.8055 43.6254C28.2848 43.366 28.7621 43.1028 29.239 42.8386C29.2913 42.8094 29.3441 42.7806 29.3964 42.7513C29.9208 42.4603 30.4438 42.1659 30.9639 41.8664C31.6699 41.4598 32.3432 40.9909 33.0093 40.5192C34.1499 39.7126 35.2724 38.8805 36.4059 38.0635C36.4739 38.0144 36.568 38.0012 36.664 37.9663V37.9653Z" fill="white"/>
<path d="M45.9756 25.3141C45.9907 25.2778 46.0454 25.2929 46.0402 25.3321C45.7269 27.5618 44.785 30.4053 43.8546 32.4086C42.0279 36.3413 39.2275 39.3838 38.0242 40.0796C38.0646 39.9046 38.1136 39.731 38.1616 39.5584C38.2096 39.3857 38.2229 39.1966 38.2391 39.0173C38.2728 38.6409 38.2752 38.2616 38.2553 37.8843C38.241 37.6182 38.2158 37.3526 38.1825 37.088C38.1616 36.9224 38.1373 36.7555 38.1554 36.5899C38.1792 36.3705 38.2994 36.214 38.4364 36.0517C38.5957 35.8635 38.7859 35.7054 38.9617 35.5342C39.324 35.1809 39.6806 34.8219 40.0301 34.4559C40.729 33.7233 41.3989 32.9624 42.0246 32.1657C42.2761 31.8454 42.5205 31.5195 42.7568 31.1879C43.5446 30.0817 44.2226 28.9246 44.8107 27.709C45.0969 27.117 45.4526 26.5326 45.7074 25.9254C45.745 25.9349 45.8809 25.541 45.9765 25.3136L45.9756 25.3141Z" fill="white"/>
<path d="M25.6546 45.7639C25.6493 45.7733 25.6365 45.7785 25.6213 45.7823C25.5633 45.7969 25.5043 45.8073 25.4453 45.8172C25.3484 45.8332 25.2509 45.8488 25.1534 45.8635C24.9761 45.8899 24.7988 45.913 24.6209 45.9332C24.2696 45.9734 23.9173 46.0021 23.5645 46.0196C22.8694 46.0545 22.1724 46.046 21.4777 46.0017C20.7855 45.9573 20.0961 45.878 19.4105 45.7724C18.4739 45.6281 17.5472 45.4238 16.6192 45.2328C16.5683 45.2224 16.515 45.2106 16.478 45.1743C16.3006 45.0016 16.8478 44.7068 16.9581 44.6427C18.3674 43.8228 19.7652 42.9832 21.1511 42.1247C21.2999 42.0322 21.4626 41.9365 21.637 41.9506C21.9556 41.9765 22.2551 42.3846 22.4753 42.587C22.7957 42.8818 23.1152 43.178 23.4337 43.4752C23.9601 43.9662 24.4849 44.4587 25.0079 44.9535C25.2504 45.1828 25.4886 45.4262 25.6479 45.7229C25.6583 45.7422 25.6598 45.755 25.6546 45.7639Z" fill="white"/>
<path d="M45.8596 21.5924C45.8777 21.5348 45.6552 21.2504 45.6195 21.1909C45.5244 21.0315 45.4289 20.8725 45.3338 20.7131C45.1412 20.3914 44.9487 20.0697 44.7566 19.748C44.5098 19.3343 44.2645 18.9202 44.0196 18.505C43.8109 18.1508 43.5028 17.7848 43.5537 17.348C43.6635 16.4078 43.8038 15.471 43.9184 14.5313C43.9479 14.2894 43.9226 14.0412 43.9226 13.7144C45.1046 15.0111 46.1953 20.5098 45.8596 21.5924Z" fill="white"/>
<path d="M17.2517 0.534668C15.8953 1.00307 14.39 1.6979 13.1628 2.27999L13.6179 1.84366C13.943 1.51158 14.7589 1.27619 15.2072 1.14789L17.2517 0.534668Z" fill="white"/>
<path d="M2.84542 14.8276L0.0402827 21.6203C0.0345774 21.6335 0.0412336 21.6387 0.0426599 21.6528C0.0146086 23.1047 -0.109958 25.294 0.255185 26.953C0.265645 27.044 0.397343 27.0497 0.41541 26.9596" fill="white"/>
<path d="M4.37833 15.2295L4.55663 34.4064C4.55663 34.4352 4.54712 34.4625 4.52857 34.4847L3.949 35.1748C3.89671 35.2371 3.79829 35.2314 3.7536 35.1635C1.94785 32.4082 1.46432 30.4393 1.43722 29.595C1.40679 29.2775 1.48857 28.9694 1.55276 28.6303C1.60173 28.3709 1.66448 28.1128 1.71964 27.8548C1.83089 27.3373 1.94072 26.8194 2.04959 26.3015C2.33106 24.9632 2.61253 23.625 2.89351 22.2872C3.17974 20.9249 3.46643 19.5626 3.75265 18.2003C3.96089 17.2102 4.16914 16.2201 4.37738 15.2299" fill="white"/>
<path d="M6.41688 33.0379L9.62185 30.3883C9.63993 30.3732 9.64845 30.3496 9.64321 30.3265L6.37598 15.4459C6.3679 15.4086 6.31274 15.4148 6.31274 15.4525V32.9898C6.31274 33.0431 6.37549 33.0719 6.41688 33.0379Z" fill="white"/>
<path d="M8.12302 14.9803C8.10588 14.9407 8.04597 14.9595 8.05455 15.0015L11.0066 29.207C11.0118 29.2321 11.0408 29.2438 11.0622 29.2292L13.3534 27.4221" fill="white"/>
<path d="M18.2676 23.9254L20.3035 22.1517C20.3153 22.1413 20.3158 22.123 20.3049 22.1121L11.3555 13.1354C11.3256 13.1052 11.2776 13.1435 11.3004 13.1793L18.2395 23.9216C18.2457 23.931 18.259 23.9329 18.2676 23.9254Z" fill="white"/>
<path d="M21.7877 20.8404C22.2456 20.5351 22.7595 20.0936 23.3809 19.3913C23.4475 19.3309 23.439 19.2243 23.3638 19.1747L12.4728 12.0265C12.4438 12.0076 12.4119 12.0467 12.4371 12.0708L21.5971 20.8371C21.6498 20.888 21.7335 20.8899 21.7877 20.8404Z" fill="white"/>
<path d="M24.6789 17.9643C25.3066 17.3473 25.8681 16.7454 26.3259 16.1671C26.4396 16.043 26.3948 15.8449 26.2389 15.7807L13.4485 10.5297C13.437 10.5249 13.428 10.5405 13.4385 10.5476L24.3609 18.0006C24.4612 18.069 24.5977 18.0534 24.6794 17.9638L24.6789 17.9643Z" fill="white"/>
<path d="M27.8678 14.5272C28.5462 13.5474 29.2765 12.5106 29.5408 11.9913C29.586 11.9224 29.547 11.8304 29.4657 11.8148L14.0712 8.8459C14.0356 8.83879 14.0203 8.88929 14.0536 8.90296L27.7251 14.5701C27.7769 14.5918 27.8368 14.5739 27.8678 14.5272Z" fill="white"/>
<path d="M30.2506 10.3625C30.6315 9.75164 31.0665 8.67615 31.3128 7.25442C31.3189 7.21812 31.2909 7.18506 31.2538 7.18555H14.2666C14.2423 7.18506 14.239 7.21954 14.2628 7.22425L30.1883 10.389C30.2126 10.3942 30.2378 10.3838 30.2506 10.363V10.3625Z" fill="white"/>
<path d="M31.4673 5.58198L14.2608 5.72157C14.2304 5.72157 14.2257 5.67866 14.2551 5.67205L30.7541 2.09131C31.2609 3.21775 31.4863 4.38335 31.4673 5.58198Z" fill="white"/>
<path d="M29.6835 0.953563L13.9309 4.01449C13.9233 4.0159 13.92 4.00553 13.9267 4.0027C14.6289 3.69514 15.8579 3.24183 16.534 2.94182C17.8662 2.35029 19.1984 1.7583 20.5306 1.16678C20.9675 0.9729 21.4045 0.778559 21.8414 0.584683C22.2907 0.385151 22.7448 0.0841995 23.2383 0.0214622C23.5269 -0.0153312 23.8193 0.0025938 24.1098 0.0205188C25.714 0.119578 27.3086 0.17807 28.8614 0.63044C29.1438 0.71252 29.4262 0.810161 29.6835 0.953563Z" fill="white"/>
<path d="M9.55406 14.2389L14.6366 26.4789L16.8712 24.8279L9.62352 14.2021C9.59687 14.163 9.53604 14.1955 9.55406 14.2389Z" fill="white"/>
</g>
</svg>
