<svg width="171" height="48" viewBox="0 0 171 48" fill="none" xmlns="http://www.w3.org/2000/svg">
<path d="M51.8401 22.0408V1.13241H57.2318V22.0408H51.8401ZM72.6545 22.0408L69.1436 14.9564H66.3851V22.0408H60.9934V1.13241H71.4633C76.1026 1.13241 78.7358 4.20441 78.7358 8.09143C78.7358 11.7277 76.5101 13.6712 74.5666 14.3608L78.8298 22.0408H72.6545ZM73.25 8.02874C73.25 6.58678 72.0589 5.67771 70.6483 5.67771H66.3851V10.3798H70.6483C72.0589 10.3798 73.25 9.47069 73.25 8.02874ZM81.7176 22.0408V1.13241H87.1093V22.0408H81.7176ZM89.3663 19.0942L92.2189 15.0504C93.7235 16.5551 96.0432 17.809 98.8958 17.809C100.745 17.809 101.874 17.0253 101.874 16.0222C101.874 14.831 100.526 14.3608 98.3002 13.8906C94.852 13.201 90.0241 12.3233 90.0241 7.37045C90.0241 3.85959 93.0025 0.818939 98.3629 0.818939C101.717 0.818939 104.632 1.82204 106.858 3.7342L103.911 7.58988C102.156 6.14792 99.8675 5.42694 98.018 5.42694C96.2313 5.42694 95.5416 6.14792 95.5416 7.05698C95.5416 8.15412 96.8269 8.53029 99.1465 8.96914C102.595 9.69012 107.359 10.6932 107.359 15.4266C107.359 19.6271 104.256 22.417 98.645 22.417C94.4131 22.417 91.4665 21.1004 89.3663 19.0942Z" fill="#002347"/>
<path d="M50.9937 44.5636L52.7804 42.1499C54.191 43.7172 56.448 45.0965 59.3633 45.0965C62.7488 45.0965 63.9399 43.3724 63.9399 41.8678C63.9399 39.6735 61.5576 39.0465 58.8931 38.3569C55.539 37.4792 51.6519 36.5074 51.6519 32.2442C51.6519 28.7961 54.6926 26.2883 59.0498 26.2883C62.2785 26.2883 64.8177 27.3228 66.6671 29.2036L64.849 31.5233C63.2503 29.8305 61.056 29.0782 58.799 29.0782C56.4794 29.0782 54.8807 30.2694 54.8807 32.0248C54.8807 33.9056 57.1377 34.5012 59.7394 35.1595C63.1563 36.0686 67.1373 37.1344 67.1373 41.5856C67.1373 44.8457 64.8803 47.8864 59.2379 47.8864C55.5076 47.8864 52.7804 46.5385 50.9937 44.5636ZM70.7687 39.3287V26.6018H73.9347V39.2346C73.9347 42.8082 75.9096 45.0965 79.5772 45.0965C83.2448 45.0965 85.1883 42.8082 85.1883 39.2346V26.6018H88.3543V39.2973C88.3543 44.5009 85.439 47.8864 79.5772 47.8864C73.7153 47.8864 70.7687 44.4696 70.7687 39.3287ZM93.024 47.5102V26.6018H101.833C106.127 26.6018 108.509 29.5484 108.509 33.0279C108.509 36.5074 106.096 39.454 101.833 39.454H96.1587V47.5102H93.024ZM105.281 33.0279C105.281 30.8336 103.682 29.3603 101.425 29.3603H96.1587V36.6955H101.425C103.682 36.6955 105.281 35.2222 105.281 33.0279ZM111.728 47.5102V26.6018H120.536C124.831 26.6018 127.213 29.5484 127.213 33.0279C127.213 36.5074 124.8 39.454 120.536 39.454H114.863V47.5102H111.728ZM123.985 33.0279C123.985 30.8336 122.386 29.3603 120.129 29.3603H114.863V36.6955H120.129C122.386 36.6955 123.985 35.2222 123.985 33.0279ZM130.432 47.5102V26.6018H133.567V44.7517H143.065V47.5102H130.432ZM148.634 47.5102V38.7644L140.453 26.6018H144.058L150.202 35.9432L156.283 26.6018H159.919L151.769 38.7644V47.5102H148.634Z" fill="#015C2D"/>
<mask id="mask0_309_420" style="mask-type:luminance" maskUnits="userSpaceOnUse" x="0" y="0" width="47" height="47">
<path d="M46.0408 0H0V46.0408H46.0408V0Z" fill="white"/>
</mask>
<g mask="url(#mask0_309_420)">
<path d="M23.9782 20.6958C24.2478 20.9874 24.5117 21.2477 24.747 21.5322C25.9085 22.937 27.0662 24.3445 28.2154 25.7592C28.5444 26.1639 28.5325 26.3153 28.1341 26.671C26.6245 28.0191 25.1373 29.3961 23.5788 30.6857C22.1049 31.9051 20.555 33.0325 19.0326 34.1924C18.5533 34.5575 18.0517 34.8934 17.5668 35.2514C17.3752 35.3929 17.2311 35.4269 17.0495 35.2193C15.9175 33.9254 14.7717 32.6438 13.6377 31.3508C13.3677 31.0428 13.0534 30.6258 12.8508 30.3843C12.8304 30.3598 12.8081 30.3366 12.7862 30.3135C12.4567 29.9664 12.6773 29.7815 12.9635 29.5711C13.7623 28.9824 14.5677 28.4031 15.3503 27.7932C16.6364 26.7908 17.9158 25.7795 19.18 24.7497C20.496 23.678 21.793 22.5827 23.0939 21.4925C23.3915 21.2435 23.6711 20.9727 23.9782 20.6949V20.6958Z" fill="#002347"/>
<path d="M22.3501 40.4963C21.5837 39.7572 20.8472 39.0552 20.1208 38.3435C19.487 37.7227 18.876 37.0778 18.2303 36.4698C17.9765 36.2311 18.0383 36.0769 18.2651 35.9123C19.022 35.3618 19.7865 34.8221 20.5415 34.2693C21.4943 33.5721 22.4733 32.9065 23.3823 32.1555C24.851 30.9423 26.274 29.6734 27.7112 28.422C28.0925 28.0904 28.4572 27.7394 28.8257 27.3932C29.2317 27.0116 29.2464 27.0073 29.5912 27.4375C30.3153 28.3413 31.0417 29.2441 31.7564 30.156C32.1823 30.6989 32.5665 31.2763 33.0111 31.8032C33.2545 32.0914 33.2117 32.2909 32.964 32.5046C32.2631 33.1084 31.5643 33.7141 30.8554 34.3084C30.1179 34.9269 29.3929 35.5632 28.6217 36.1368C27.2872 37.1283 25.9278 38.0864 24.5657 39.0402C23.8601 39.5341 23.127 39.9873 22.3501 40.4963Z" fill="#002347"/>
<path d="M38.2825 14.307C38.352 14.3396 38.4171 14.4165 38.4637 14.4674C38.5807 14.5947 38.6971 14.7226 38.8136 14.8509C39.0461 15.1075 39.2772 15.365 39.5087 15.6221C39.9713 16.1358 40.4363 16.6481 40.918 17.1443C41.2113 17.4462 41.5104 17.742 41.8189 18.0279C42.5249 18.6821 42.4204 19.2364 42.1104 19.9435C41.3948 21.5756 40.6474 23.1912 39.6694 24.6861C38.9696 25.7554 38.1955 26.7734 37.3878 27.7626C36.5581 28.7786 35.7028 29.7753 34.837 30.7598C33.5362 29.0932 32.2354 27.4272 30.9345 25.7606C30.8898 25.7035 30.8442 25.6436 30.829 25.5724C30.7833 25.3545 31.0344 25.1695 31.1628 25.0262C31.3581 24.8073 31.5564 24.5903 31.7513 24.371C32.1222 23.953 32.4859 23.5285 32.8264 23.0851C33.8243 21.786 34.8384 20.4912 35.7232 19.1152C36.1963 18.3788 36.6038 17.6028 36.9989 16.8222C37.3887 16.0514 37.8195 15.2967 38.0596 14.4608C38.0686 14.4287 38.081 14.3976 38.0995 14.3697C38.1575 14.2829 38.2217 14.2777 38.283 14.3065L38.2825 14.307Z" fill="#002347"/>
<path d="M32.4205 9.47053C32.4538 9.39696 32.5484 9.3757 32.6107 9.42713C33.1789 9.89459 33.7328 10.3385 34.27 10.8017C35.0778 11.4979 35.8732 12.2098 36.6715 12.9173C37.4778 13.6324 37.4935 13.673 37.0115 14.6697C36.4542 15.8202 35.9612 17.0141 35.2865 18.092C34.4635 19.4062 33.5041 20.6373 32.5584 21.8694C31.9446 22.6695 31.249 23.4058 30.5919 24.1723C30.1061 24.7393 30.0167 24.7228 29.5327 24.1322C28.6807 23.0926 27.8044 22.0732 26.9419 21.0425C26.534 20.5552 26.1403 20.0562 25.7281 19.5727C25.5494 19.3632 25.5627 19.216 25.751 19.0085C26.7931 17.858 27.8562 16.724 28.8414 15.5259C29.914 14.2216 30.8668 12.8258 31.5923 11.2894C31.8662 10.7092 32.1253 10.1229 32.4205 9.47053Z" fill="#002347"/>
<path d="M43.0802 19.7666C43.1434 19.7354 43.2119 19.7496 43.2851 19.8359C44.1228 20.8308 44.7295 22.0006 45.2325 23.2011C45.5306 23.9129 45.4598 24.4756 45.1712 25.1851C44.2369 27.4809 42.9898 29.648 41.4812 31.6121C40.5037 32.8848 39.4054 34.0466 38.2587 35.1656C38.1978 35.2245 38.1336 35.2858 38.0514 35.3075C37.8978 35.3476 37.7476 35.2354 37.6406 35.1179C37.4257 34.882 37.2716 34.5985 37.1138 34.3212C36.6926 33.5806 36.2319 32.8622 35.734 32.1711C35.6028 31.9886 35.4635 31.7933 35.4554 31.5683C35.4478 31.3518 35.5657 31.1499 35.7079 30.9862C36.3369 30.2631 37.0173 29.5833 37.6468 28.8588C38.2948 28.113 38.9186 27.346 39.4967 26.5441C40.0906 25.721 40.6354 24.8615 41.1038 23.9601C41.4917 23.2138 41.8255 22.4416 42.1611 21.6709C42.329 21.2855 42.4973 20.9001 42.6732 20.518C42.7469 20.3581 42.89 19.859 43.0802 19.7656V19.7666Z" fill="#002347"/>
<path d="M13.8678 34.2467C14.1906 34.6071 14.511 34.9698 14.8329 35.3316C14.9955 35.5146 15.1586 35.6967 15.3221 35.8788C15.4058 35.9717 15.49 36.0646 15.5741 36.1571C15.6003 36.1859 15.6284 36.2137 15.6559 36.242C15.7406 36.3269 15.7258 36.467 15.626 36.5335C15.2884 36.759 14.6185 37.2727 14.5419 37.3302C14.1069 37.659 13.6738 37.9901 13.2383 38.3184C13.0509 38.4595 12.8636 38.6006 12.6758 38.7406C12.0606 39.1987 11.4934 39.7195 10.9319 40.2421C10.9162 40.2567 10.9 40.2718 10.8843 40.2864C10.6842 40.4718 10.4854 40.6591 10.2848 40.8445C10.2164 40.9077 10.1474 40.9709 10.078 41.0331C10.0447 41.0634 10.0128 41.0945 9.98003 41.1251C9.9501 41.1534 9.91444 41.1959 9.87688 41.2133C9.87639 41.1959 9.91062 41.169 9.92253 41.1563C9.93962 41.1383 9.96151 41.1251 9.9767 41.1053C9.94721 41.1549 9.91013 41.1992 9.8683 41.2384C9.83314 41.2714 9.79082 41.303 9.73993 41.2954C9.64486 41.2808 9.5759 41.1884 9.50409 41.1322C8.02168 39.9751 6.62243 38.727 5.3492 37.3411C4.7197 36.6557 4.78484 36.7661 5.30546 36.1208C6.07332 35.1684 6.95475 34.2938 7.86955 33.4787C8.79854 32.6509 9.81266 31.9202 10.8135 31.1404C10.9048 31.0692 11.035 31.0787 11.1149 31.1617L11.6888 31.7612L13.8673 34.2462L13.8678 34.2467Z" fill="#002347"/>
<path d="M36.2152 36.9208C36.1581 37.017 36.1206 37.159 36.0283 37.226C34.2374 38.5317 32.4734 39.8784 30.633 41.111C29.2927 42.0087 27.8564 42.7643 26.4505 43.5615C25.8324 43.9125 25.7012 43.8262 25.1982 43.2695C24.6272 42.637 23.9977 42.0573 23.3939 41.4539C23.0054 41.0662 23.0116 40.9818 23.4671 40.6803C24.7831 39.8091 26.1253 38.9741 27.4114 38.06C28.6504 37.1793 29.8428 36.2316 31.0362 35.2882C31.8535 34.6424 32.6413 33.9589 33.4329 33.2811C33.7243 33.0315 33.9469 33.0188 34.1627 33.3683C34.6253 34.1169 35.1064 34.8538 35.5672 35.6033C35.7555 35.9099 35.9143 36.235 36.0792 36.5557C36.132 36.658 36.1605 36.7731 36.2148 36.9213L36.2152 36.9208Z" fill="#002347"/>
<path d="M15.4461 44.7219C15.3595 44.7219 15.2896 44.6719 15.1893 44.6285C15.0685 44.5767 14.9478 44.5257 14.827 44.4734C14.5878 44.3691 14.3501 44.2611 14.1219 44.1342C13.3902 43.7281 12.6756 43.2903 11.9634 42.8498C11.6743 42.671 11.3862 42.4894 11.1124 42.2879C10.9122 42.1408 10.6426 42.0431 10.7339 41.7002C10.7524 41.6308 10.7838 41.5658 10.8204 41.5044C11.1219 40.9954 11.6016 40.6261 12.0751 40.2756C13.4458 39.2605 14.857 38.302 16.2681 37.3444C16.3775 37.2698 16.5029 37.192 16.6327 37.2185C16.7264 37.2373 16.8001 37.3076 16.8681 37.3746C17.4772 37.9723 18.0824 38.5728 18.7057 39.1548C19.3343 39.7417 19.9828 40.3077 20.6232 40.8818C20.9793 41.2011 20.9983 41.3148 20.5932 41.5724C19.8515 42.0445 19.0723 42.4573 18.3272 42.9243C17.8442 43.2271 17.3692 43.5417 16.8947 43.8573C16.4597 44.1465 16.0427 44.4531 15.574 44.688C15.5255 44.7121 15.4841 44.7219 15.4461 44.7219Z" fill="#002347"/>
<path d="M31.3349 0.984486C31.3725 0.96798 31.4428 0.978829 31.5602 1.03213C31.9225 1.1977 32.3172 1.34487 32.6581 1.55195C33.8457 2.15008 34.983 2.83926 36.0418 3.64635C36.6099 4.07938 37.0017 4.52797 37.3041 5.17656C37.7663 6.16766 38.052 7.23699 38.1333 8.32855C38.2179 9.46585 38.0306 10.5857 37.9098 11.7131C37.8804 11.9853 37.7025 11.9159 37.5428 11.7843C36.0941 10.5904 34.6373 9.40639 33.181 8.22148C32.8919 7.98608 32.8687 7.71909 32.8948 7.34268C33.0175 5.57423 33.0103 3.71805 32.0238 2.1699C31.8636 1.91847 31.6824 1.68168 31.5013 1.44535C31.3876 1.29723 31.2298 1.03119 31.3349 0.984486Z" fill="#002347"/>
<path d="M38.0266 5.44167C38.5771 5.68696 38.9846 6.21618 39.3811 6.65303C39.8209 7.13793 40.2426 7.63933 40.6448 8.15543C41.4498 9.18797 42.1777 10.2814 42.8205 11.423C43.1148 11.9456 43.2816 12.5258 43.2883 13.1305C43.2988 14.2513 43.1918 15.3697 43.1138 16.4863C43.1096 16.5481 43.0986 16.6098 43.0777 16.6684C42.9574 17.0052 42.7596 16.7783 42.5885 16.6288C42.3845 16.45 42.1881 16.2627 41.9951 16.0721C41.6085 15.6905 41.2377 15.2933 40.8502 14.9131C40.4356 14.506 40.0215 14.0994 39.6079 13.6919C39.4053 13.4923 39.2047 13.2904 39.0007 13.0918C38.6912 12.7909 38.6047 12.6168 38.695 12.1838C38.8372 11.5012 38.8505 10.8159 38.8514 10.1224C38.8529 9.39079 38.8367 8.6559 38.7188 7.93228C38.5795 7.08038 38.3013 6.2582 38.0242 5.44073L38.0266 5.44167Z" fill="#002347"/>
<path d="M36.664 37.9651C37.1129 38.8204 37.0853 39.7058 36.9108 40.5407C36.8172 40.9888 36.4382 41.4615 36.0579 41.7501C34.594 42.8601 32.967 43.7196 31.263 44.3771C30.2759 44.7578 29.2571 45.0483 28.2301 45.2979C27.9938 45.3554 27.7566 45.4106 27.5193 45.4644C27.2987 45.5144 27.0719 45.6083 26.8813 45.4361C26.799 45.362 26.7429 45.263 26.6958 45.1625C26.6241 45.0087 26.5594 44.8516 26.4785 44.7026C26.4344 44.621 26.4011 44.5238 26.432 44.4365C26.4467 44.3936 26.4757 44.3573 26.5094 44.3271C26.5879 44.2568 26.6882 44.2229 26.7814 44.1776C26.8846 44.1271 26.984 44.0662 27.0853 44.012C27.3258 43.8842 27.5659 43.7554 27.8055 43.6252C28.2848 43.3658 28.7621 43.1026 29.239 42.8384C29.2913 42.8091 29.3441 42.7804 29.3964 42.7511C29.9208 42.4601 30.4438 42.1657 30.9639 41.8662C31.6699 41.4596 32.3432 40.9907 33.0093 40.519C34.1499 39.7124 35.2724 38.8803 36.4059 38.0633C36.4739 38.0142 36.568 38.001 36.664 37.9661V37.9651Z" fill="#002347"/>
<path d="M45.9756 25.3139C45.9907 25.2775 46.0454 25.2927 46.0402 25.3318C45.7269 27.5616 44.785 30.4051 43.8546 32.4084C42.0279 36.341 39.2275 39.3836 38.0242 40.0794C38.0646 39.9044 38.1136 39.7308 38.1616 39.5581C38.2096 39.3855 38.2229 39.1963 38.2391 39.017C38.2728 38.6406 38.2752 38.2614 38.2553 37.884C38.241 37.618 38.2158 37.3524 38.1825 37.0878C38.1616 36.9222 38.1373 36.7552 38.1554 36.5897C38.1792 36.3703 38.2994 36.2137 38.4364 36.0514C38.5957 35.8632 38.7859 35.7052 38.9617 35.534C39.324 35.1806 39.6806 34.8216 40.0301 34.4556C40.729 33.723 41.3989 32.9622 42.0246 32.1655C42.2761 31.8452 42.5205 31.5192 42.7568 31.1876C43.5446 30.0815 44.2226 28.9244 44.8107 27.7087C45.0969 27.1168 45.4526 26.5323 45.7074 25.9252C45.745 25.9346 45.8809 25.5408 45.9765 25.3134L45.9756 25.3139Z" fill="#002347"/>
<path d="M25.6546 45.7634C25.6493 45.7729 25.6365 45.7781 25.6213 45.7819C25.5633 45.7965 25.5043 45.8068 25.4453 45.8168C25.3484 45.8328 25.2509 45.8484 25.1534 45.863C24.9761 45.8894 24.7988 45.9125 24.6209 45.9328C24.2696 45.9729 23.9173 46.0017 23.5645 46.0191C22.8694 46.054 22.1724 46.0456 21.4777 46.0012C20.7855 45.9569 20.0961 45.8776 19.4105 45.772C18.4739 45.6276 17.5472 45.4234 16.6192 45.2323C16.5683 45.2219 16.515 45.2102 16.478 45.1738C16.3006 45.0012 16.8478 44.7064 16.9581 44.6422C18.3674 43.8224 19.7652 42.9827 21.1511 42.1242C21.2999 42.0318 21.4626 41.936 21.637 41.9501C21.9556 41.9761 22.2551 42.3841 22.4753 42.5865C22.7957 42.8813 23.1152 43.1776 23.4337 43.4747C23.9601 43.9658 24.4849 44.4582 25.0079 44.9531C25.2504 45.1823 25.4886 45.4257 25.6479 45.7224C25.6583 45.7417 25.6598 45.7545 25.6546 45.7634Z" fill="#002347"/>
<path d="M45.8596 21.5921C45.8777 21.5345 45.6552 21.2501 45.6195 21.1907C45.5244 21.0312 45.4289 20.8723 45.3338 20.7128C45.1412 20.3911 44.9487 20.0694 44.7566 19.7477C44.5098 19.334 44.2645 18.9198 44.0196 18.5047C43.8109 18.1505 43.5028 17.7844 43.5537 17.3476C43.6635 16.4075 43.8038 15.4707 43.9184 14.5311C43.9479 14.2891 43.9226 14.0409 43.9226 13.7141C45.1046 15.0108 46.1953 20.5095 45.8596 21.5921Z" fill="#002347"/>
<path d="M17.2517 0.534454C15.8953 1.00286 14.39 1.69769 13.1628 2.27978L13.6179 1.84345C13.943 1.51137 14.7589 1.27598 15.2072 1.14767L17.2517 0.534454Z" fill="#015C2D"/>
<path d="M2.84542 14.8272L0.0402827 21.6199C0.0345774 21.6331 0.0412336 21.6383 0.0426599 21.6524C0.0146086 23.1044 -0.109958 25.2936 0.255185 26.9526C0.265645 27.0436 0.397343 27.0493 0.41541 26.9592" fill="#015C2D"/>
<path d="M4.37833 15.2292L4.55663 34.4061C4.55663 34.4348 4.54712 34.4622 4.52857 34.4844L3.949 35.1745C3.89671 35.2367 3.79829 35.2311 3.7536 35.1632C1.94785 32.4079 1.46432 30.439 1.43722 29.5946C1.40679 29.2771 1.48857 28.9692 1.55276 28.63C1.60173 28.3705 1.66448 28.1125 1.71964 27.8545C1.83089 27.337 1.94072 26.8191 2.04959 26.3011C2.33106 24.9629 2.61253 23.6247 2.89351 22.2869C3.17974 20.9246 3.46643 19.5623 3.75265 18.2C3.96089 17.2098 4.16914 16.2198 4.37738 15.2296" fill="#015C2D"/>
<path d="M6.41688 33.0377L9.62185 30.3881C9.63993 30.373 9.64845 30.3494 9.64321 30.3263L6.37598 15.4457C6.3679 15.4084 6.31274 15.4146 6.31274 15.4523V32.9896C6.31274 33.0429 6.37549 33.0721 6.41688 33.0382V33.0377Z" fill="#015C2D"/>
<path d="M8.12302 14.9801C8.10588 14.9405 8.04597 14.9594 8.05455 15.0013L11.0066 29.2069C11.0118 29.2319 11.0408 29.2437 11.0622 29.2291L13.3534 27.4219" fill="#015C2D"/>
<path d="M18.2676 23.9252L20.3035 22.1516C20.3153 22.1412 20.3158 22.1228 20.3049 22.1119L11.3555 13.1352C11.3256 13.1051 11.2776 13.1433 11.3004 13.1791L18.2395 23.9214C18.2457 23.9308 18.259 23.9327 18.2676 23.9252Z" fill="#015C2D"/>
<path d="M21.7877 20.8402C22.2456 20.535 22.7595 20.0934 23.3809 19.3911C23.4475 19.3307 23.439 19.2241 23.3638 19.1746L12.4728 12.0262C12.4438 12.0074 12.4119 12.0465 12.4371 12.0706L21.5971 20.8368C21.6498 20.8878 21.7335 20.8897 21.7877 20.8402Z" fill="#015C2D"/>
<path d="M24.6789 17.9641C25.3066 17.3471 25.8681 16.7453 26.3259 16.1669C26.4396 16.0429 26.3948 15.8448 26.2389 15.7806L13.4485 10.5295C13.437 10.5248 13.428 10.5404 13.4385 10.5475L24.3609 18.0005C24.4612 18.0689 24.5977 18.0533 24.6794 17.9637L24.6789 17.9641Z" fill="#015C2D"/>
<path d="M27.8678 14.5268C28.5462 13.5471 29.2765 12.5102 29.5408 11.9909C29.586 11.922 29.547 11.83 29.4657 11.8145L14.0712 8.84552C14.0356 8.83847 14.0203 8.88892 14.0536 8.90258L27.7251 14.5697C27.7769 14.5914 27.8368 14.5735 27.8678 14.5268Z" fill="#015C2D"/>
<path d="M30.2506 10.3626C30.6315 9.75169 31.0665 8.6762 31.3128 7.25447C31.3189 7.21812 31.2909 7.18511 31.2538 7.18555H14.2666C14.2423 7.18511 14.239 7.21954 14.2628 7.22425L30.1883 10.389C30.2126 10.3942 30.2378 10.3833 30.2506 10.3626Z" fill="#015C2D"/>
<path d="M31.4673 5.58175L14.2608 5.72139C14.2304 5.72139 14.2257 5.67843 14.2551 5.67187L30.7541 2.09109C31.2609 3.21754 31.4863 4.38313 31.4673 5.58175Z" fill="#015C2D"/>
<path d="M29.6835 0.953349L13.9309 4.01428C13.9233 4.01569 13.92 4.00531 13.9267 4.00249C14.6289 3.69493 15.8579 3.24162 16.534 2.94161C17.8662 2.35008 19.1984 1.75808 20.5306 1.16656C20.9675 0.972686 21.4045 0.778345 21.8414 0.584469C22.2907 0.384937 22.7448 0.0839858 23.2383 0.0212486C23.5269 -0.0155448 23.8193 0.00238018 24.1098 0.0203052C25.714 0.119364 27.3086 0.177856 28.8614 0.630226C29.1438 0.712306 29.4262 0.809947 29.6835 0.953349Z" fill="#015C2D"/>
<path d="M9.55406 14.2386L14.6366 26.4785L16.8712 24.8276L9.62352 14.2018C9.59687 14.1627 9.53604 14.1952 9.55406 14.2386Z" fill="#015C2D"/>
</g>
</svg>
