<?xml version="1.0" standalone="no"?>
<!DOCTYPE svg PUBLIC "-//W3C//DTD SVG 20010904//EN"
 "http://www.w3.org/TR/2001/REC-SVG-20010904/DTD/svg10.dtd">
<svg version="1.0" xmlns="http://www.w3.org/2000/svg"
 width="512.000000pt" height="512.000000pt" viewBox="0 0 512.000000 512.000000"
 preserveAspectRatio="xMidYMid meet">
<metadata>
Created by potrace 1.14, written by Peter Selinger 2001-2017
</metadata>
<g transform="translate(0.000000,512.000000) scale(0.100000,-0.100000)"
fill="#000000" stroke="none">
<path d="M2501 4330 c-89 -43 -551 -246 -579 -255 -13 -4 -21 -9 -19 -12 7 -7
1166 220 1162 228 -15 23 -201 54 -385 64 -114 6 -116 6 -179 -25z"/>
<path d="M1914 4257 c-59 -21 -112 -53 -103 -60 2 -2 45 15 94 39 99 47 103
55 9 21z"/>
<path d="M3210 4272 c0 -4 12 -24 26 -43 73 -98 97 -182 98 -354 1 -71 5 -135
8 -141 9 -13 354 -297 367 -302 15 -5 22 40 28 178 6 143 -1 190 -47 311 -38
105 -139 191 -351 303 -103 55 -129 64 -129 48z"/>
<path d="M2510 4054 c-338 -74 -619 -136 -625 -139 -5 -3 62 -3 150 0 88 3
391 5 674 5 l514 0 -7 69 c-3 38 -15 98 -26 135 -18 56 -24 66 -43 65 -12 0
-299 -61 -637 -135z"/>
<path d="M3744 3909 c45 -158 49 -177 50 -314 0 -77 -3 -160 -7 -185 l-8 -44
166 -165 c120 -119 169 -161 177 -153 6 6 13 77 16 177 l5 167 -42 81 c-68
133 -271 398 -340 443 -23 16 -24 16 -17 -7z"/>
<path d="M1891 3796 c4 -4 1217 -246 1231 -246 19 0 95 230 80 244 -3 3 -300
6 -660 6 -361 0 -653 -2 -651 -4z"/>
<path d="M1881 3656 c17 -15 1054 -435 1059 -429 32 36 130 197 123 203 -7 7
-1153 231 -1177 230 -5 0 -7 -2 -5 -4z"/>
<path d="M3240 3502 c-89 -190 -162 -293 -377 -531 -57 -62 -103 -116 -103
-120 0 -8 118 -152 257 -313 46 -54 90 -98 96 -98 28 0 317 360 401 499 47 77
166 324 166 344 0 23 -350 337 -375 337 -5 0 -35 -53 -65 -118z"/>
<path d="M1835 3521 c6 -5 196 -136 424 -291 320 -218 418 -280 430 -273 32
20 133 143 128 156 -3 7 -135 66 -293 131 -159 66 -381 157 -494 203 -112 46
-200 79 -195 74z"/>
<path d="M1750 3406 c0 -9 701 -676 709 -676 12 0 131 109 131 120 0 4 -78 59
-172 121 -95 62 -284 186 -420 276 -137 89 -248 161 -248 159z"/>
<path d="M1787 3110 c77 -118 197 -306 269 -416 l129 -202 25 19 c14 10 50 41
80 68 l55 50 -348 348 -349 348 139 -215z"/>
<path d="M4200 3265 c0 -5 -7 -55 -15 -110 -25 -174 -26 -170 70 -332 47 -78
89 -143 92 -143 13 0 -7 172 -32 286 -27 121 -73 254 -100 290 -8 10 -15 15
-15 9z"/>
<path d="M1512 3235 c3 -5 87 -206 186 -445 99 -239 187 -449 194 -466 l13
-32 80 59 c44 32 81 62 83 68 2 5 -119 189 -268 408 -234 342 -312 453 -288
408z"/>
<path d="M3732 3218 c-11 -44 -135 -284 -188 -366 -73 -111 -221 -308 -306
-403 -37 -43 -68 -81 -68 -85 0 -8 299 -392 311 -400 10 -6 232 256 316 374
34 48 84 123 110 167 67 113 163 327 163 365 0 26 -14 47 -78 113 -42 45 -113
121 -156 170 -44 48 -83 87 -89 87 -5 0 -12 -10 -15 -22z"/>
<path d="M861 2907 l-104 -252 6 -180 c5 -174 17 -256 30 -210 12 40 178 887
175 890 -2 2 -50 -110 -107 -248z"/>
<path d="M1400 3153 c0 -18 219 -1066 224 -1070 4 -5 176 127 176 135 0 6
-391 936 -396 941 -2 2 -4 0 -4 -6z"/>
<path d="M1250 2466 c0 -424 4 -686 9 -684 21 7 251 201 251 211 0 18 -250
1151 -255 1156 -3 2 -5 -305 -5 -683z"/>
<path d="M982 2591 c-129 -613 -126 -569 -55 -741 35 -84 121 -240 133 -240 4
0 17 11 30 24 l23 25 -3 543 c-1 299 -5 630 -9 736 l-6 193 -113 -540z"/>
<path d="M4100 2764 c-156 -363 -228 -475 -487 -763 -46 -50 -83 -97 -83 -104
0 -7 28 -56 63 -109 34 -54 74 -118 89 -143 16 -26 35 -45 45 -45 34 0 259
255 366 416 71 107 163 279 197 371 28 76 23 127 -23 224 -47 98 -115 199
-133 199 -8 0 -24 -21 -34 -46z"/>
<path d="M2505 2628 c-182 -154 -508 -415 -642 -515 -62 -46 -113 -90 -113
-98 0 -27 342 -415 366 -415 17 0 253 173 434 319 175 141 430 373 430 392 0
16 -295 387 -331 415 -11 10 -40 -10 -144 -98z"/>
<path d="M4285 2236 c-124 -250 -228 -396 -424 -598 l-114 -118 -1 -144 -1
-144 39 31 c61 49 182 193 262 312 132 199 242 462 293 699 12 54 20 100 19
101 -2 1 -34 -61 -73 -139z"/>
<path d="M2975 2182 c-146 -138 -426 -369 -607 -501 -109 -78 -198 -146 -198
-151 0 -10 328 -330 339 -330 23 0 418 276 556 389 165 134 285 243 285 258 0
24 -290 394 -308 393 -4 -1 -34 -26 -67 -58z"/>
<path d="M1504 1846 c-119 -92 -243 -209 -318 -298 l-48 -58 36 -44 c38 -47
180 -180 283 -266 l63 -52 93 84 c51 47 157 133 235 192 79 59 140 111 137
116 -12 20 -356 405 -364 408 -5 1 -57 -35 -117 -82z"/>
<path d="M3310 1703 c-140 -122 -354 -284 -543 -410 -104 -70 -191 -132 -194
-140 -6 -17 189 -213 212 -213 26 0 273 141 411 235 175 119 394 283 394 295
0 37 -166 300 -189 299 -9 0 -50 -30 -91 -66z"/>
<path d="M1875 1332 c-195 -134 -278 -208 -273 -242 3 -24 167 -133 292 -195
81 -39 72 -42 216 55 47 31 129 82 183 114 53 31 97 63 97 70 0 7 -53 60 -117
119 -65 58 -138 126 -163 151 -24 25 -49 46 -55 46 -5 0 -86 -53 -180 -118z"/>
<path d="M3490 1299 c-197 -144 -283 -200 -460 -297 -222 -122 -209 -111 -187
-156 9 -20 23 -39 31 -42 15 -6 144 25 261 63 162 52 400 180 467 250 15 15
32 41 37 56 22 57 8 217 -18 217 -4 0 -62 -41 -131 -91z"/>
<path d="M2245 964 c-104 -63 -191 -120 -193 -127 -5 -25 325 -77 488 -77 89
0 208 14 219 26 9 9 -291 294 -309 293 -8 0 -100 -52 -205 -115z"/>
</g>
</svg>
