<?xml version="1.0" standalone="no"?>
<!DOCTYPE svg PUBLIC "-//W3C//DTD SVG 20010904//EN"
 "http://www.w3.org/TR/2001/REC-SVG-20010904/DTD/svg10.dtd">
<svg version="1.0" xmlns="http://www.w3.org/2000/svg"
 width="512.000000pt" height="512.000000pt" viewBox="0 0 512.000000 512.000000"
 preserveAspectRatio="xMidYMid meet">
<metadata>
Created by potrace 1.14, written by Peter Selinger 2001-2017
</metadata>
<g transform="translate(0.000000,512.000000) scale(0.100000,-0.100000)"
fill="#000000" stroke="none">
<path d="M2550 4346 c-19 -7 -138 -59 -265 -116 -126 -56 -266 -118 -310 -137
-44 -19 -71 -32 -60 -30 517 97 1143 223 1137 229 -13 13 -119 36 -214 47
-180 19 -251 21 -288 7z"/>
<path d="M3210 4272 c0 -4 12 -24 26 -43 73 -98 97 -182 98 -354 1 -71 5 -135
9 -141 7 -13 353 -297 366 -302 16 -6 22 34 28 173 6 148 -1 195 -47 316 -38
105 -139 191 -351 303 -103 55 -129 64 -129 48z"/>
<path d="M1896 4250 c-28 -11 -57 -27 -65 -35 -9 -10 13 -3 54 15 99 44 106
57 11 20z"/>
<path d="M2548 4060 c-323 -71 -595 -131 -605 -134 -10 -2 271 -4 624 -3 353
1 645 5 649 9 9 10 -11 141 -32 206 -11 35 -22 52 -33 51 -9 0 -280 -58 -603
-129z"/>
<path d="M3744 3909 c45 -158 49 -177 50 -314 0 -77 -3 -160 -7 -185 l-8 -44
166 -165 c120 -119 169 -161 177 -153 6 6 13 77 16 177 l5 167 -42 81 c-68
133 -271 398 -340 443 -23 16 -24 16 -17 -7z"/>
<path d="M1905 3795 c6 -2 273 -56 595 -120 322 -64 594 -119 606 -121 17 -5
25 3 41 43 27 63 53 151 53 180 l0 23 -652 -1 c-359 0 -648 -2 -643 -4z"/>
<path d="M1890 3657 c4 -4 869 -365 1001 -417 l45 -18 68 101 c61 90 66 102
50 109 -11 4 -269 55 -574 113 -305 59 -564 109 -575 112 -11 3 -18 3 -15 0z"/>
<path d="M3240 3502 c-89 -190 -162 -293 -377 -531 -57 -62 -103 -116 -103
-120 0 -8 118 -152 257 -313 46 -54 90 -98 96 -98 28 0 317 360 401 499 47 77
166 324 166 344 0 23 -350 337 -375 337 -5 0 -35 -53 -65 -118z"/>
<path d="M2254 3236 c230 -157 423 -283 431 -280 20 8 136 145 133 156 -3 8
-961 408 -977 408 -2 0 184 -128 413 -284z"/>
<path d="M1810 3348 c91 -93 643 -618 649 -618 4 0 36 27 71 59 42 39 62 62
55 69 -5 5 -188 125 -405 267 -217 142 -402 263 -410 268 -8 6 10 -15 40 -45z"/>
<path d="M1712 3230 c222 -348 472 -730 477 -730 9 0 151 122 151 129 0 4
-153 159 -341 346 -338 337 -341 339 -287 255z"/>
<path d="M4200 3265 c0 -5 -7 -55 -15 -110 -25 -174 -26 -170 70 -332 47 -78
89 -143 92 -143 13 0 -7 172 -32 286 -27 121 -73 254 -100 290 -8 10 -15 15
-15 9z"/>
<path d="M3732 3218 c-11 -44 -135 -284 -188 -366 -73 -111 -221 -308 -306
-403 -37 -43 -68 -81 -68 -85 0 -8 299 -392 311 -400 10 -6 232 256 316 374
34 48 84 123 110 167 67 113 163 327 163 365 0 26 -14 47 -78 113 -42 45 -113
121 -156 170 -44 48 -83 87 -89 87 -5 0 -12 -10 -15 -22z"/>
<path d="M1522 3220 c12 -33 380 -915 383 -919 2 -1 40 23 85 55 51 37 79 63
75 72 -4 12 -532 790 -543 802 -3 3 -3 -2 0 -10z"/>
<path d="M1401 3159 c-1 -6 217 -1056 222 -1072 2 -7 120 79 170 123 4 3 -79
211 -184 461 -105 250 -195 463 -199 474 -5 11 -9 17 -9 14z"/>
<path d="M864 2907 l-99 -242 0 -150 c0 -139 11 -273 21 -262 5 5 183 891 180
894 -1 1 -47 -107 -102 -240z"/>
<path d="M987 2602 c-59 -285 -108 -539 -107 -565 0 -91 95 -317 178 -427 2
-3 15 8 28 23 l24 28 -1 407 c-1 224 -5 552 -8 729 l-6 321 -108 -516z"/>
<path d="M1261 2446 l-1 -669 23 20 c12 11 65 55 117 98 52 42 99 81 103 85 6
6 -220 1075 -238 1125 -2 6 -4 -291 -4 -659z"/>
<path d="M4100 2764 c-156 -363 -228 -475 -487 -763 -46 -50 -83 -97 -83 -104
0 -7 28 -56 63 -109 34 -54 74 -118 89 -143 16 -26 35 -45 45 -45 34 0 259
255 366 416 71 107 163 279 197 371 28 76 23 127 -23 224 -47 98 -115 199
-133 199 -8 0 -24 -21 -34 -46z"/>
<path d="M2505 2628 c-182 -154 -508 -415 -642 -515 -62 -46 -113 -90 -113
-98 0 -27 342 -415 366 -415 17 0 252 172 429 315 181 145 435 377 435 396 0
16 -295 387 -331 415 -11 10 -40 -10 -144 -98z"/>
<path d="M4285 2236 c-124 -250 -228 -396 -424 -598 l-114 -118 -1 -144 -1
-144 39 31 c61 49 182 193 262 312 132 199 242 462 293 699 12 54 20 100 19
101 -2 1 -34 -61 -73 -139z"/>
<path d="M2975 2182 c-146 -138 -426 -369 -607 -501 -109 -78 -198 -146 -198
-151 0 -10 328 -330 339 -330 23 0 418 276 556 389 165 134 285 243 285 258 0
24 -290 394 -308 393 -4 -1 -34 -26 -67 -58z"/>
<path d="M1504 1846 c-119 -92 -243 -209 -318 -298 l-48 -58 36 -44 c38 -47
180 -180 283 -266 l63 -52 93 84 c51 47 157 133 235 192 79 59 140 111 137
116 -12 20 -356 405 -364 408 -5 1 -57 -35 -117 -82z"/>
<path d="M3310 1703 c-140 -122 -354 -284 -543 -410 -104 -70 -191 -132 -194
-140 -6 -17 189 -213 212 -213 26 0 273 141 411 235 175 119 394 283 394 295
0 37 -166 300 -189 299 -9 0 -50 -30 -91 -66z"/>
<path d="M1875 1332 c-195 -134 -278 -208 -273 -242 3 -24 167 -133 292 -195
81 -39 72 -42 216 55 47 31 129 82 183 114 53 31 97 63 97 70 0 7 -53 60 -117
119 -65 58 -138 126 -163 151 -24 25 -49 46 -55 46 -5 0 -86 -53 -180 -118z"/>
<path d="M3490 1299 c-197 -144 -283 -200 -460 -297 -222 -122 -209 -111 -187
-156 9 -20 23 -39 31 -42 15 -6 144 25 261 63 162 52 400 180 467 250 15 15
32 41 37 56 22 57 8 217 -18 217 -4 0 -62 -41 -131 -91z"/>
<path d="M2245 964 c-104 -63 -191 -120 -193 -127 -5 -25 325 -77 488 -77 89
0 208 14 219 26 9 9 -291 294 -309 293 -8 0 -100 -52 -205 -115z"/>
</g>
</svg>
